<?xml version="1.0" standalone="no"?>
<!DOCTYPE svg PUBLIC "-//W3C//DTD SVG 1.1//EN" "http://www.w3.org/Graphics/SVG/1.1/DTD/svg11.dtd">
<svg xmlns="http://www.w3.org/2000/svg">
<metadata>Copyright (C) 2018 by original authors @ fontello.com</metadata>
<defs>
<font id="ahead" horiz-adv-x="1000" >
<font-face font-family="ahead" font-weight="400" font-stretch="normal" units-per-em="1000" ascent="850" descent="-150" />
<missing-glyph horiz-adv-x="1000" />
<glyph glyph-name="accounts" unicode="&#xe800;" d="M665 594a256 256 0 1 0-256 256 255 255 0 0 0 256-256z m57-384a330 330 0 0 1-139 78 355 355 0 0 0-172-46 339 339 0 0 0-172 46c-113-31-199-103-239-256h613a203 203 0 0 0 109 178z m277-186a175 175 0 1 0-175 176 175 175 0 0 0 175-176z m-79 30l-2 4-44 1a42 42 0 0 0-39 29l-14 38h-6l-12-38a42 42 0 0 0-40-29h-45l-2-5 35-27a41 41 0 0 0 15-46l-13-40 5-4 35 25a42 42 0 0 0 49 0l34-23 6 4-13 39a43 43 0 0 0 15 46z" horiz-adv-x="999" />

<glyph glyph-name="alignment" unicode="&#xe801;" d="M0 850v-1000h91v1000z m182-91v-363h636v363z m0-454v-364h1002v364z" horiz-adv-x="1184" />

<glyph glyph-name="app-arch" unicode="&#xe802;" d="M294 571a15 15 0 0 0-15-15h-264a15 15 0 0 0-15 15v264a15 15 0 0 0 15 15h264a15 15 0 0 0 15-15z m353 264a15 15 0 0 1-15 15h-264a15 15 0 0 1-15-15v-264a15 15 0 0 1 15-15h264a15 15 0 0 1 15 15z m353 0a15 15 0 0 1-15 15h-264a15 15 0 0 1-15-15v-264a15 15 0 0 1 15-15h264a15 15 0 0 1 15 15z m-706-353a15 15 0 0 1-15 15h-264a15 15 0 0 1-15-15v-264a15 15 0 0 1 15-15h264a15 15 0 0 1 15 15z m353 0a15 15 0 0 1-15 15h-264a15 15 0 0 1-15-15v-264a15 15 0 0 1 15-15h264a15 15 0 0 1 15 15z m353 0a15 15 0 0 1-15 15h-264a15 15 0 0 1-15-15v-264a15 15 0 0 1 15-15h264a15 15 0 0 1 15 15z m-706-353a15 15 0 0 1-15 15h-264a15 15 0 0 1-15-15v-264a15 15 0 0 1 15-15h264a15 15 0 0 1 15 15z m353 0a15 15 0 0 1-15 15h-264a15 15 0 0 1-15-15v-264a15 15 0 0 1 15-15h264a15 15 0 0 1 15 15z m353 0a15 15 0 0 1-15 15h-264a15 15 0 0 1-15-15v-264a15 15 0 0 1 15-15h264a15 15 0 0 1 15 15z" horiz-adv-x="1000" />

<glyph glyph-name="app-performance" unicode="&#xe803;" d="M909 171a10 10 0 0 0 0 14l35 51a238 238 0 0 0-22 44c0-8-1-15-3-22h0l-78 12a1284 1284 0 0 1-7 183l7 0 61 15 7 1c3-10 5-20 7-30a239 239 0 0 0 26 55l-34 53a10 10 0 0 0 0 14l30 31a458 458 0 0 1-33 52 500 500 0 1 1 44-512z m-77 449c5-6 10-13 15-19s9-14 14-21l-63-45c-5 6-9 13-14 20a240 240 0 0 1-15 20z m-166 47l33 54 4 7a401 401 0 0 0 42-26l-4-6-34-54-3-6a332 332 0 0 1-42 26z m-134 39l10 62 0 8a440 440 0 0 0 49-8l-11-77a336 336 0 0 1-49 6z m-383-111l6-4 55-33 6-4a332 332 0 0 1-26-42l-7 2-53 35-8 4a371 371 0 0 0 27 42z m-66-153l70-11 7 0a326 326 0 0 1-7-50l-78 11a440 440 0 0 0 8 50z m7-214a422 422 0 0 0-11 48l7 2 61 15 7 1a317 317 0 0 1 11-48l-7-2-61-14z m79-147c-6 6-10 13-15 20a242 242 0 0 0-14 20l63 45c4-7 9-13 14-20s10-13 15-20z m126 552c-7-4-14-9-20-14l-45 62c6 6 13 11 19 15s14 10 21 14l45-62z m98 58l-14 61-2 6a444 444 0 0 0 48 12l2-7 15-61 0-7a322 322 0 0 1-48-11z m156-397l-6-5a74 74 0 1 0 17 103l4-6a74 74 0 0 0-14-91z m42 83l214-73a3 3 0 0 0 2-4 3 3 0 0 0-4-3h0l-226-3a96 96 0 0 1 14 84z m260-273l-6 4-54 33-6 4a369 369 0 0 1 25 42l6-3 55-34 6-4c-8-13-17-27-26-41z m662 296l-61 11a257 257 0 0 1-30 73l35 51a11 11 0 0 1 0 14l-52 51a11 11 0 0 1-13 0l-50-34a251 251 0 0 1-75 30l-10 61a10 10 0 0 1-10 10h-72a10 10 0 0 1-10-9l-11-61c-8-2-15-4-22-7a234 234 0 0 1-52-24l-50 35a11 11 0 0 1-14 0l-50-51a11 11 0 0 1 0-14l35-51a241 241 0 0 1-31-74l-61-10a10 10 0 0 1-9-11v-71a10 10 0 0 1 9-10l61-11a241 241 0 0 1 31-74l-35-50a11 11 0 0 1 0-14l50-51a11 11 0 0 1 14 0l50 36a249 249 0 0 1 74-31l11-61a10 10 0 0 1 10-9h72a10 10 0 0 1 10 9l10 61a247 247 0 0 1 75 31l50-36a10 10 0 0 1 13 0l51 51a11 11 0 0 1 0 14l-34 50a250 250 0 0 1 30 74l61 11a10 10 0 0 1 9 10v71a10 10 0 0 1-9 11z m-296-231a172 172 0 1 0 172 172 173 173 0 0 0-172-171z" horiz-adv-x="1522" />

<glyph glyph-name="approach" unicode="&#xe804;" d="M879 286l-44-44a45 45 0 0 0-64 64l44 44-44 44a45 45 0 0 0 64 64l44-44 44 44a45 45 0 1 0 64-64l-44-44 44-44a45 45 0 1 0-64-64z m-3-358l-44 44 44 44a45 45 0 0 1-64 64l-44-43-43 43a45 45 0 0 1-65-64l44-44-44-43a45 45 0 0 1 65-65l43 44 44-44a45 45 0 0 1 64 65z m-679 13a106 106 0 1 0 106 106 106 106 0 0 0-106-106z m0 303a197 197 0 0 1 0-394 196 196 0 0 1 190 152h52a167 167 0 0 1 167 166v142a198 198 0 0 0 57 139l246 246v-62a46 46 0 0 1 46-45 45 45 0 0 1 46 45v163l0 0c0 3 0 6 0 9s0 6 0 9a35 35 0 0 1-8 17 26 26 0 0 1-7 6 42 42 0 0 1-14 9 44 44 0 0 1-17 4h-172a45 45 0 0 1 0-91h61l-245-246a288 288 0 0 1-83-203v-142a76 76 0 0 0-77-76h-52a196 196 0 0 1-190 152z m135 245l-44 43a45 45 0 0 1-64-64l44-43-44-44a45 45 0 0 1 64-64l44 43 44-43a45 45 0 0 1 63 65l-44 44 44 44a45 45 0 0 1-64 64z m-146 240l44 44a45 45 0 0 1 0 64 47 47 0 0 1-65 0l-43-44-45 44a47 47 0 0 1-64 0 46 46 0 0 1 0-64l44-44-44-44a45 45 0 0 1 64-64l45 43 43-43a45 45 0 0 1 65 64z" horiz-adv-x="1000" />

<glyph glyph-name="arch" unicode="&#xe805;" d="M133 767v-767a83 83 0 0 1-50 17 86 86 0 0 1-15-2l-5-1a72 72 0 0 1-10-3l-5-2a62 62 0 0 1-8-5l-4-3-3 0v766a50 50 0 0 0 100 0z m304-164v19h235v-18h20v66h-20v-18h-236v18h-21v-66h21z m321-504h-516v18h-20v-66h20v18h516v-18h20v66h-20z m242 668v-834a83 83 0 0 0-83-83h-834a83 83 0 0 0-83 83v834a83 83 0 0 0 165 16h670a83 83 0 0 0 165-16z m-867 0a50 50 0 0 1-100 0v-767l3 0 4 3a62 62 0 0 0 8 5l5 2a72 72 0 0 0 10 4l5 1a86 86 0 0 0 15 1 83 83 0 0 0 50-17z m282-164h21v19h236v-18h20v66h-20v-18h-236v18h-21v-66z m-188-328a109 109 0 0 1 109-109h310a127 127 0 0 1 54 241c0 4 0 8 0 12a146 146 0 0 1-280 55 73 73 0 0 1-120-55 71 71 0 0 1 12-39 109 109 0 0 1-85-105z m551-158h-20v-18h-516v18h-20v-66h20v18h516v-18h20v66z m189 650a50 50 0 0 1-100 0v-767a83 83 0 0 0 50 17 84 84 0 0 0 15-2l5-1a72 72 0 0 0 10-3l5-2a62 62 0 0 0 8-5l5-3 2 0z" horiz-adv-x="1000" />

<glyph glyph-name="assess" unicode="&#xe806;" d="M619 804h-121v25a21 21 0 0 1-42 0v-25h-95v25a21 21 0 0 1-42 0v-25h-95v25a21 21 0 1 1-40 0v-25h-122a62 62 0 0 1-62-62v-829a62 62 0 0 1 62-63h557a63 63 0 0 1 63 63v829a63 63 0 0 1-63 62z m-353-725l-97-78a21 21 0 0 0-13-4h-4a21 21 0 0 0-14 9l-28 44a21 21 0 0 0 7 29 21 21 0 0 0 28-7l16-25 79 64a20 20 0 0 0 29-3 21 21 0 0 0-3-29z m0 167l-97-78a20 20 0 0 0-13-5l-4 0a21 21 0 0 0-14 10l-28 43a21 21 0 0 0 35 23l16-24 79 64a21 21 0 0 0 29-4 20 20 0 0 0-3-29z m0 167l-97-79a21 21 0 0 0-13-4h-4a21 21 0 0 0-14 9l-28 44a21 21 0 0 0 7 29 21 21 0 0 0 28-7l16-24 79 64a20 20 0 0 0 29-3 21 21 0 0 0-3-29z m0 167l-97-79a21 21 0 0 0-13-5h-4a21 21 0 0 0-14 10l-28 44a21 21 0 0 0 7 29 21 21 0 0 0 28-7l16-24 79 64a21 21 0 0 0 26-32z m287-545h-196a21 21 0 1 0 0 42h196a21 21 0 0 0 0-42z m0 167h-196a21 21 0 0 0 0 42h196a21 21 0 0 0 0-42z m0 167h-196a21 21 0 1 0 0 41h196a21 21 0 0 0 0-41z m0 167h-196a21 21 0 0 0 0 41h196a21 21 0 0 0 0-41z" horiz-adv-x="681" />

<glyph glyph-name="automate" unicode="&#xe807;" d="M953 317a233 233 0 1 1 233-234 233 233 0 0 1-233 234z m29-296l-108-62v248l108-62 108-62z m-321 62a292 292 0 0 0 292 292l6 0a27 27 0 0 1 9 24l-17 96a27 27 0 0 1-32 23l-32-6c-13-3-27 25-27 25h0a403 403 0 0 1-59 94v0s-19 23-11 34l19 26a27 27 0 0 1-6 39l-80 56a27 27 0 0 1-38-6l-19-27c-8-11-36 0-36 0h0a407 407 0 0 1-108 24v0s-30 3-33 16l-5 34a27 27 0 0 1-32 23l-96-17a27 27 0 0 1-23-31s3-20 6-33-26-27-26-27v0a410 410 0 0 1-94-58h0s-23-20-34-12l-27 19a27 27 0 0 1-38-6l-56-81a27 27 0 0 1 6-38s16-12 27-20 0-36 0-36h0a418 418 0 0 1-25-107h0s-2-30-16-33l-33-4a27 27 0 0 1-23-32l16-96a27 27 0 0 1 32-23l33 6c13 2 27-25 27-25h0a403 403 0 0 1 58-94h0s20-24 12-35l-19-27a27 27 0 0 1 6-38l81-57a27 27 0 0 1 38 7l20 27c8 11 36 0 36 0h0a407 407 0 0 1 107-25v0s30-2 32-16 6-32 6-32a27 27 0 0 1 31-24l96 16a27 27 0 0 1 23 32s-3 20-6 33 26 27 26 27v0c6 3 12 7 18 10a296 296 0 0 0-12 83z m-303 106a217 217 0 1 0 303 51 217 217 0 0 0-303-51z" horiz-adv-x="1186" />

<glyph glyph-name="best-practices" unicode="&#xe808;" d="M1060 295c-20-108-48-248-69-345-22-92-79-99-176-99-152 0-364 53-451 77a51 51 0 0 0-38 50c1 86 1 290 1 373a50 50 0 0 0 28 45c153 71 251 342 279 414s168 40 151-57c-11-49-33-163-54-254a38 38 0 0 1 40-45 939 939 0 0 0 158 4c102-7 153-45 131-163z m-807 112v-489a56 56 0 0 0-55-56h-142a56 56 0 0 0-56 56v489a56 56 0 0 0 56 56h142a56 56 0 0 0 55-56z m-82-421a45 45 0 1 1-44-45 45 45 0 0 1 44 46z" horiz-adv-x="1065" />

<glyph glyph-name="business" unicode="&#xe809;" d="M709 786h-677v-904h-32v-32h839v32h-33v904z m-483-480h-96v64h96z m0 161h-96v64h96z m0 161h-96v64h96z m225 64h96v-64h-96z m0-161h96v-65h-96z m0-161h96v-64h-96z m-161 322h96v-64h-96z m0-161h96v-65h-96z m0-161h96v-64h-96z m129-427a131 131 0 1 0 131 130 131 131 0 0 0-131-130z m290 363h-96v64h96z m0 161h-96v64h96z m0 161h-96v64h96z m-548 222h32v-64h-32z m387-32h129v-32h-129z m-137-817v18a54 54 0 0 0-29 8l5 16a53 53 0 0 1 27-7c12 0 19 5 19 14s-6 13-19 18c-19 7-31 15-31 32a31 31 0 0 0 29 31v17h15v-17a61 61 0 0 0 24-6l-5-16a54 54 0 0 1-24 5c-12 0-16-7-16-12s6-11 21-18c20-8 29-17 29-33a32 32 0 0 0-30-33v-18h-15z" horiz-adv-x="839" />

<glyph glyph-name="cloud-mgmt" unicode="&#xe80a;" d="M1694 418a19 19 0 0 0-14-18l-90-13a322 322 0 0 0-19-45c16-24 34-45 52-67a19 19 0 0 0 5-12 16 16 0 0 0-5-12c-11-16-79-88-94-88a26 26 0 0 0-13 5l-68 53a313 313 0 0 0-44-19 654 654 0 0 0-14-91 18 18 0 0 0-18-14h-108a17 17 0 0 0-17 15l-14 90a254 254 0 0 0-44 18l-69-52a19 19 0 0 0-12-5 17 17 0 0 0-13 6 609 609 0 0 0-79 82 21 21 0 0 0-3 12 19 19 0 0 0 4 11c16 22 34 44 51 67a287 287 0 0 0-20 48l-89 13a18 18 0 0 0-15 18v109a19 19 0 0 0 13 18l92 13a237 237 0 0 0 18 45c-17 24-35 46-53 68a19 19 0 0 0-4 12 18 18 0 0 0 4 11c12 16 79 88 94 88a21 21 0 0 0 13-5l64-53a297 297 0 0 0 45 19 595 595 0 0 0 14 91 18 18 0 0 0 20 14h109a17 17 0 0 0 18-15l14-90a356 356 0 0 0 43-18l70 52a17 17 0 0 0 12 5 18 18 0 0 0 11-5 621 621 0 0 0 79-83 16 16 0 0 0 3-11 20 20 0 0 0-3-12c-17-22-35-43-52-67a251 251 0 0 0 20-48l90-13a18 18 0 0 0 14-18z m-376 181a126 126 0 1 1 125-125 126 126 0 0 1-125 125z m-133-496l-5 33-22-17a79 79 0 0 0-51-17 79 79 0 0 0-54 21l-4 4a612 612 0 0 0-85 88 83 83 0 0 0-16 48 79 79 0 0 0 16 47l20 26-40 6a79 79 0 0 0-65 79v108a79 79 0 0 0 63 79h3l36 5-17 21a79 79 0 0 0-18 51 79 79 0 0 0 16 47 499 499 0 0 0 36 43 352 352 0 0 1-191 57 359 359 0 0 1-333-221 179 179 0 0 1-295-136 175 175 0 0 1 29-96 268 268 0 0 1 61-529h762a313 313 0 0 1 285 185h-52a79 79 0 0 0-79 68z" horiz-adv-x="1694" />

<glyph glyph-name="cloud-mgmt-platform" unicode="&#xe80b;" d="M1213 850a307 307 0 1 1 308-307 307 307 0 0 1-308 307z m0-62a105 105 0 0 0 96-110 105 105 0 0 0-96-109 103 103 0 0 0-96 109 101 101 0 0 0 96 110z m170-417h-339c-10 0-14 7-14 16a181 181 0 0 0 112 154 14 14 0 0 0 16-3l44-43a13 13 0 0 1 20 0l43 43a15 15 0 0 0 16 3 186 186 0 0 0 112-154 13 13 0 0 0-10-16z m183-406a289 289 0 0 0-210-115h-1083a298 298 0 0 0-14 592 406 406 0 0 0 610 351 24 24 0 0 0 10-35 398 398 0 0 1 657-447 26 26 0 0 0 44 0 301 301 0 0 0-14-346z" horiz-adv-x="1628" />

<glyph glyph-name="cmdb" unicode="&#xe80c;" d="M850 850h-700a50 50 0 0 1-50-50v-100h-50a50 50 0 0 1 0-100h50v-100h-50a50 50 0 0 1 0-100h50v-101h-50a50 50 0 0 1 0-100h50v-100h-50a50 50 0 0 1 0-100h50v-100a50 50 0 0 1 50-50h700a50 50 0 0 1 50 50v901a50 50 0 0 1-50 50z m-150-380a20 20 0 0 0-20-20h-360a20 20 0 0 0-20 20v210a20 20 0 0 0 20 20h360a20 20 0 0 0 20-20v-210z" horiz-adv-x="900" />

<glyph glyph-name="communicate" unicode="&#xe80d;" d="M967 568v-522h-121v-196l-170 196h-354v241h363v281z m-324 282h-643v-524h121v-194l170 194h352z" horiz-adv-x="966" />

<glyph glyph-name="compute" unicode="&#xe80e;" d="M876 391v-83c4 0 8 0 13 0h77a31 31 0 0 0 34-31 30 30 0 0 0-34-31h-90v-82c3 0 7 0 11 0h79a31 31 0 1 0 0-62h-91v-65a61 61 0 0 0-62-60h-62c0-5 0-9 0-12v-80a31 31 0 1 0-62 0v89h-83c0-4 0-7 0-11v-77c0-23-11-35-31-35s-32 12-32 36v88h-84c0-4 0-8 0-12v-75q0-37-31-37t-32 37v87h-82c0-3-1-6-1-9v-81a30 30 0 0 0-32-34c-19 0-30 12-30 34v91h-61a62 62 0 0 0-65 64v60h-92a31 31 0 1 0 0 61h92v85h-92a30 30 0 0 0-33 31 30 30 0 0 0 32 32h92v84h-92a30 30 0 0 0-32 31 30 30 0 0 0 32 31h92v82h-91a31 31 0 0 0-33 32 30 30 0 0 0 32 31h91c0 4 0 8 0 12 0 19 0 37 0 56a61 61 0 0 0 62 57h64v94a30 30 0 0 0 31 31 31 31 0 0 0 32-33v-91h82v91a31 31 0 0 0 28 33 30 30 0 0 0 34-32v-92h83v94a30 30 0 0 0 26 29 29 29 0 0 0 34-19 30 30 0 0 0 6-19v-87h83v94a31 31 0 0 0 62 0v-94h64a61 61 0 0 0 60-62c0-20 0-41 0-62 5 0 8 0 13 0h81a31 31 0 0 0 12-60 53 53 0 0 0-17-2h-88v-83c4 0 8 0 12 0h80a31 31 0 1 0 0-62c-29-2-59-2-91-2z m-501-267a26 26 0 0 0 33-9 22 22 0 0 1 28-8c9 3 19 6 28 8 33 11 32 11 31 46 0 7-3 11-10 10a51 51 0 0 1-44-14 18 18 0 0 0-8-7 21 21 0 0 0-11 1 10 10 0 0 0 0 10 43 43 0 0 0 34 23 274 274 0 0 0 28 2c8 0 12 3 11 11 0 13 0 24-2 39-2 19-10 27-31 26a219 219 0 0 1-36-7 33 33 0 0 0-35 9 288 288 0 0 0-19 30c0 2 0 9 2 10a12 12 0 0 0 10-1 72 72 0 0 0 10-14c8-15 16-19 31-14a81 81 0 0 0 66 0 3 3 0 0 1 2 0v51a137 137 0 0 0-12-9 37 37 0 0 0-51 3 101 101 0 0 0-15 14 42 42 0 0 1-36 12 104 104 0 0 0-35 0 108 108 0 0 1-60 0c-21-6-41-11-63-16 2-19 5-35 7-54a152 152 0 0 0 25 7 209 209 0 0 0 23-4c9 0 11 4 13 11a27 27 0 0 0 45 16 62 62 0 0 0 20-48 24 24 0 0 0-15-24l-37-18c-7-4-14-5-21 0a65 65 0 0 0 49 30c3 0 9 7 9 11a54 54 0 0 1-17 40c-5 5-11 5-13-3a127 127 0 0 1-5-17c-4-15-11-19-26-16a69 69 0 0 0-10 3c-21 5-26 0-25-19a24 24 0 0 1 0-10 221 221 0 0 1 51-92h2a17 17 0 0 1 2 8c5 28 14 34 42 33h4a28 28 0 0 1 32 17 30 30 0 0 0 24 19c10 2 20 4 32 5a40 40 0 0 0 11-1c3 0 6-4 6-6s-3-5-6-7c-7-1-14-3-22-5s-23-6-28-13a52 52 0 0 0-53-24c-19 3-28-7-29-26a58 58 0 0 1 23-47 263 263 0 0 1 73-47 113 113 0 0 1 56-9c24 2 31 9 33 33a109 109 0 0 1 0 17c0 21-8 26-26 16-12-7-22-13-34-18a24 24 0 0 0-28 5 179 179 0 0 0-33 31z m263-4c-19-2-27-16-39-28a25 25 0 0 0-35-6 180 180 0 0 0-16 11 61 61 0 0 1-21 9c-4 1-13-4-13-7-8-33-2-63 38-62a172 172 0 0 1 135 69 59 59 0 0 1 10 39c-2 16-8 22-23 21-7 0-15-2-22-2a24 24 0 0 0-27 15 41 41 0 0 1-39 26 28 28 0 0 0-15 3 59 59 0 0 0-11 10c5 4 10 9 15 8a66 66 0 0 0 58-33 20 20 0 0 1 26-10 47 47 0 0 0 13 2 30 30 0 0 0 38-21c2-8 4-15 6-24a188 188 0 0 1 47 81 121 121 0 0 1 3 27c0 12-7 16-19 13-26-7-39 2-42 26 0 4-5 11-8 11a19 19 0 0 1-15-7 99 99 0 0 1-10-29c-3-12 0-17 12-17 21-2 32-16 46-29a18 18 0 0 0-24-2 153 153 0 0 1-30 13c-14 4-23 12-20 27a188 188 0 0 0 15 47 24 24 0 0 0 29 14c13-3 17-12 19-25 2-16 9-19 23-13s26 13 39-6c2 19 4 35 7 50 0 5 0 10-8 9a156 156 0 0 0-62 14 87 87 0 0 1-33 3 294 294 0 0 0-40-6 77 77 0 0 1-65-24 38 38 0 0 0-56 0c-3 3-6 6-10 9v-53c3 0 5 0 6 0a55 55 0 0 0 54 0l10-3c14-3 20 0 26 11l9 16a12 12 0 0 0 19 2c-5-9-9-17-15-25a36 36 0 0 0-42-18c-9 3-20 6-29 7a33 33 0 0 1-40-30 143 143 0 0 1-1-30c0-17 2-17 19-18a166 166 0 0 0 39-5 24 24 0 0 0 18-22c0-4-3-9-4-13-3 2-8 3-10 5a51 51 0 0 1-53 19c-2 0-6-3-6-5-1-14 0-27 0-42a172 172 0 0 0 24 0 68 68 0 0 0 19-7c29-16 30-16 52 8 5 11 17 10 29-3z m-145 364a64 64 0 0 0-46-4l-15 3a37 37 0 0 1-46-30 37 37 0 0 1 21-49 208 208 0 0 1 29-9c12-4 14-10 6-21-14 5-27 9-40 14a61 61 0 0 0-35 70 59 59 0 0 0 62 43c9-2 16-4 24-6a29 29 0 0 1 40 31c0 17 0 33 0 48a12 12 0 0 1-10 14c-19 6-36 20-58 17 3 3 6 8 9 8a98 98 0 0 0 30-1 272 272 0 0 0 30-11 205 205 0 0 1-3 38 24 24 0 0 1-12 15 115 115 0 0 1-85-6 28 28 0 0 1-13-19 300 300 0 0 1 5-55 20 20 0 0 1 21-18c14 0 29 0 44-2 3 0 6-3 10-5-2-3-4-8-7-8a166 166 0 0 0-33-4c-37 2-43 8-49 44-4 17-6 33-9 53-12-11-23-20-32-29a31 31 0 0 1-6-20 217 217 0 0 1 16-40c5-11 13-22 17-33a47 47 0 0 0-9-51 41 41 0 0 0-45-9c-14 3-26 7-40 9a28 28 0 0 1-29-7 81 81 0 0 1-15-46c12 3 24 5 33 9a184 184 0 0 0 70 3c4 0 7-5 12-8-3-3-8-7-12-7-10 0-20 0-31 0a82 82 0 0 1-23 0c-18-4-34-9-51-14v-40c25 5 47 9 71 15a105 105 0 0 0 47 2 147 147 0 0 1 35-3 64 64 0 0 0 55-24 31 31 0 0 1 47-2 59 59 0 0 1 16 29 261 261 0 0 1 0 51c0 2-4 6-7 7a340 340 0 0 1-32 2c-7 1-14 2-14 10s10 8 17 7a184 184 0 0 1 25-6c6-1 12 0 13 9a323 323 0 0 1 2 36z m291-80c-4 15-6 26-9 37a26 26 0 0 1-32 18c-10 0-21-5-32-6a164 164 0 0 0-38-4 28 28 0 0 0-29 35 156 156 0 0 0 13 45c5 14 13 27 18 40a45 45 0 0 1-32 58c-4-21-7-42-11-63a34 34 0 0 0-36-27c-12 0-24-1-34-2a64 64 0 0 0-20 2c-2 0-5 7-4 10s6 4 9 5a201 201 0 0 0 27 1 185 185 0 0 0 24 0c14 0 19 3 20 18 0 18 0 36 0 54a25 25 0 0 1-25 29 239 239 0 0 1-48 3 35 35 0 0 1-37-38c0-19 3-22 20-15a258 258 0 0 0 40 12c12 2 19-6 24-19a70 70 0 0 0-14 0 38 38 0 0 1-35-2c-8-4-18-7-27-11a10 10 0 0 1-5-8c0-18 0-36 0-54a33 33 0 0 1 47-29 47 47 0 0 0 23 4 64 64 0 0 0 54-44 52 52 0 0 0-19-60 197 197 0 0 0-49-22 32 32 0 0 0-13 2c2 4 3 10 7 12a107 107 0 0 0 23 9 38 38 0 0 1 30 49 41 41 0 0 1-51 35c-18-4-36-12-55 2 0-12 0-21-2-31 0-13 2-16 15-15s20 3 30 4a16 16 0 0 0 20-11 111 111 0 0 0-63-12v-45a58 58 0 0 1 23-46c16-13 28-12 40 5a53 53 0 0 0 50 23c16 0 32 3 47 4a273 273 0 0 0 39 0c13-2 24-7 36-10s22-4 35-7v35c0 7-2 9-8 10-14 3-29 7-44 11a76 76 0 0 1-21 0 58 58 0 0 0-40 5 12 12 0 0 0-5 10c1 3 6 5 10 6a12 12 0 0 0 9-3 42 42 0 0 1 30-4 67 67 0 0 0 29 0 82 82 0 0 0 46-5z m-82 176a24 24 0 0 0-4 0c0-2-2-4-4-7-7-16-14-32-23-47-4-9-8-16-11-24-6-22 5-37 26-35a688 688 0 0 1 71 13 231 231 0 0 1-19 34c-4 8-11 7-17 0s-7-8-11-10a37 37 0 0 0-15-2c0 4 0 10 3 12 8 9 18 17 27 25-7 14-15 28-23 42z m-454-101c10-3 17-5 26-7l23-6a83 83 0 0 1 23-2 24 24 0 0 1 24 33 151 151 0 0 1-7 19c-11 21-21 42-31 64a9 9 0 0 0-3 0c-7-11-14-21-21-31a12 12 0 0 1 4-19 92 92 0 0 0 22-18c3-3 0-10 2-14-5 0-12-2-16 0a88 88 0 0 0-16 13c-4 3-8 5-14 9-6-13-11-27-16-41z" horiz-adv-x="1000" />

<glyph glyph-name="config-mgmt" unicode="&#xe80f;" d="M741 547c-7-22-12-24-16-22a62 62 0 0 0-61-59 67 67 0 0 0-63 62c-3 0-8 5-12 23-7 24 0 28 7 28a59 59 0 0 0 0 37 80 80 0 0 0 18 33 115 115 0 0 0 17 14 42 42 0 0 0 18 8h0l15 4a59 59 0 0 0 37-8 49 49 0 0 0 18-17s35-3 20-75h0c5-2 7-9 2-28z m239-86l-63-10a265 265 0 0 0-27-68l37-52a25 25 0 0 0-2-31l-23-23-23-23a23 23 0 0 0-18-7 21 21 0 0 0-13 5l-51 37a240 240 0 0 0-68-28l-10-63a23 23 0 0 0-23-20h-61a23 23 0 0 0-23 20l-11 63a230 230 0 0 0-66 28l-52-37a22 22 0 0 0-14-5 25 25 0 0 0-17 7l-23 23-23 23a24 24 0 0 0-2 31l37 51a258 258 0 0 0-28 67l-63 11a25 25 0 0 0-18 24v62a23 23 0 0 0 20 23l60 11a229 229 0 0 0 28 67l-36 52a23 23 0 0 0 2 32l23 22 23 23a23 23 0 0 0 17 7 23 23 0 0 0 14-4l51-37a265 265 0 0 0 66 26l10 62a23 23 0 0 0 23 20h63a23 23 0 0 0 23-20l10-61a256 256 0 0 0 69-29l52 37a23 23 0 0 0 14 5 25 25 0 0 0 17-7l23-23 23-23a25 25 0 0 0 3-31l-37-50a239 239 0 0 0 28-67l62-10a23 23 0 0 0 20-23v-64a28 28 0 0 0-23-23z m-110 103a211 211 0 0 1-206 163 231 231 0 0 1-46-6 211 211 0 0 1 46-416 236 236 0 0 1 48 6 212 212 0 0 1 158 253z m-58-155a38 38 0 0 1-28 35 222 222 0 0 0-67 32l-23-75-5-14h0l-3-11-13 34c31 45-8 42-8 42s-39 2-8-42l-13-35-3 11-28 90a254 254 0 0 0-67-32 39 39 0 0 1-29-36 180 180 0 0 1 147-74 156 156 0 0 1 40 5 183 183 0 0 1 108 70z m-405-143l-3-19-4-19a14 14 0 0 0-14-11h-38a131 131 0 0 0-23-37l16-35a15 15 0 0 0-4-19l-15-10-15-10a12 12 0 0 0-11-3 17 17 0 0 0-8 4l-27 26a183 183 0 0 0-43-10l-12-36a14 14 0 0 0-16-9h0l-18 3-19 4a14 14 0 0 0-12 14v38a176 176 0 0 0-37 23l-35-17a23 23 0 0 0-10-2 15 15 0 0 0-9 6l-10 16-11 15a14 14 0 0 0 1 19l27 26a180 180 0 0 0-11 43l-37 12a14 14 0 0 0-9 16l4 19 3 18a14 14 0 0 0 14 12h38a140 140 0 0 0 23 37l-17 35a14 14 0 0 0 5 19l15 10 15 10a12 12 0 0 0 10 3 19 19 0 0 0 9-4l26-26a172 172 0 0 0 43 11l13 37a14 14 0 0 0 16 9h0l19-3 18-4a14 14 0 0 0 12-14v-38a135 135 0 0 0 38-24l35 16a23 23 0 0 0 9 1 15 15 0 0 0 9-6l11-15 10-15a14 14 0 0 0-1-18l-26-27a180 180 0 0 0 10-43l36-13a13 13 0 0 0 10-15z m-120 8a83 83 0 1 1-90-77 83 83 0 0 1 90 77z m322-163l8-13 8-14a13 13 0 0 0-3-16l-25-19a121 121 0 0 0 5-36l28-14a10 10 0 0 0 6-14l-5-15-5-15a13 13 0 0 0-5-7 15 15 0 0 0-7-1l-32 3a127 127 0 0 0-22-28l10-29a10 10 0 0 0-6-14h0l-14-8-14-8a13 13 0 0 0-14 3l-20 24a121 121 0 0 0-34-5l-14-29a11 11 0 0 0-5-6 12 12 0 0 0-9 0l-15 5-15 5a11 11 0 0 0-9 12l4 32a103 103 0 0 0-28 23l-30-11a10 10 0 0 0-14 6l-8 12-8 14a13 13 0 0 0 4 16l24 20a125 125 0 0 0-5 36l-29 14a10 10 0 0 0-6 14l5 15 5 15a12 12 0 0 0 6 7 14 14 0 0 0 6 0l32-4a103 103 0 0 0 23 28l-12 31a10 10 0 0 0 6 14h0l13 9 14 8a13 13 0 0 0 15-3l20-24a123 123 0 0 0 37 4l14 28a14 14 0 0 0 5 6 12 12 0 0 0 9 0l15-5 15-4a11 11 0 0 0 8-13l-3-31a133 133 0 0 0 28-23l29 11a14 14 0 0 0 14-6z m-81-57a69 69 0 1 1-19-93 67 67 0 0 1 19 93z" horiz-adv-x="1002" />

<glyph glyph-name="connections" unicode="&#xe810;" d="M379 846a90 90 0 0 0 111-61 93 93 0 0 0-51-109l25-121a183 183 0 0 0 147-52l124 101a106 106 0 0 0-12 27 120 120 0 1 0 148-82 121 121 0 0 0-114 28l-124-101a164 164 0 0 0 23-49 183 183 0 0 0-25-153l150-129a35 35 0 0 0 16 8 60 60 0 1 0-41-75 64 64 0 0 0 3 40l-151 127a191 191 0 0 0-74-43 183 183 0 0 0-147 22l-136-172a126 126 0 0 0 28-48 120 120 0 1 0-229-67 119 119 0 0 0 81 149 117 117 0 0 0 92-11l136 170a191 191 0 0 0-48 80 180 180 0 0 0 1 103l-147 64a97 97 0 0 0-50-35 90 90 0 1 0 61 112 102 102 0 0 0 0-44l147-62a178 178 0 0 0 103 85l-25 122a91 91 0 0 0-86 64 91 91 0 0 0 64 112z" horiz-adv-x="958" />

<glyph glyph-name="containers" unicode="&#xe811;" d="M844 714l-295 136-295-136v-280l-254-117v-332l295-136 254 117 255-116 295 136v332l-255 116z m-588-759l-178 82v195l178-83z m254 79l-176-80v195l176 81z m0 317l-178 82v195l178-82z m255-397l-177 80v196l177-81z m1 479l-178-81v194l178 82z m255-201v-196l-178-82v195z" horiz-adv-x="1099" />

<glyph glyph-name="continuous" unicode="&#xe812;" d="M1309 144a205 205 0 1 1-140 355 197 197 0 0 1-36-46l-151 274a499 499 0 1 0 327-877 473 473 0 0 0-389 186 2264 2264 0 0 0-186 320c-13 24-24 43-33 59l0 3a717 717 0 0 1-41 63 182 182 0 0 1-158 75 205 205 0 1 1 177-309l149-274a499 499 0 1 0-329 877 473 473 0 0 0 388-186 2217 2217 0 0 0 186-320c13-24 24-43 34-59l0-3h0a545 545 0 0 1 40-63 182 182 0 0 1 162-75z" horiz-adv-x="1806" />

<glyph glyph-name="cost-cuts" unicode="&#xe813;" d="M676 585c-1 2-3 4-4 4a13 13 0 0 1-8 1h-5c-27-5-52-8-79-12-3-2-5-2-8-4l-13-4a195 195 0 0 1-57-31c-19-12-36-25-55-38l-103-70a54 54 0 0 0-13-8c-19-13-40-27-60-41a131 131 0 0 1-50-61 287 287 0 0 0-25-47 28 28 0 0 0-31-12 106 106 0 0 1-94-28 105 105 0 0 1-32-92h0a104 104 0 0 1 47-73 106 106 0 0 1 87-14 105 105 0 0 1 79 118 36 36 0 0 1-3 13 30 30 0 0 0 10 33c68 57 127 108 182 156s108 94 173 145h0c17 15 35 31 52 45 2 1 3 1 5 3a14 14 0 0 1 5 11 5 5 0 0 1 0 6z m-517-496a66 66 0 0 0-51 13 72 72 0 0 0-27 45h0a69 69 0 0 0 58 77 71 71 0 0 0 78-59h0a67 67 0 0 0-59-76z m578 86c-2 3-4 8-8 9s-4 2-5 2l-62 29h0c-77 33-142 63-206 92-9 4-20 9-30 14-32-27-63-54-98-84 13-3 23-8 35-11l14-5 119-38c20-6 42-14 63-20a289 289 0 0 1 62-13h22l79 9h5c3 0 5 2 8 4s3 3 3 4a12 12 0 0 1-1 8z m-520 257a34 34 0 0 1-2 12 108 108 0 0 1-111 92 113 113 0 0 1-79-39 108 108 0 0 1-24-84h0a105 105 0 0 1 56-81 104 104 0 0 1 96 0 28 28 0 0 0 34-3l4-5c2 2 2 5 4 7a150 150 0 0 0 50 66c-3 2-8 3-11 5a38 38 0 0 0-17 30z m-97-71a69 69 0 0 0-78 57h0a66 66 0 0 0 13 51 73 73 0 0 0 45 28 67 67 0 0 0 77-57h0a67 67 0 0 0-57-78z m819-253c-12-87-66-147-161-177a347 347 0 0 0-45-11l-23-5v-65h-88v63l-12 4c-171 41-247 125-235 258h3l163-51a106 106 0 0 1 102-79h34a94 94 0 0 1 97 66 141 141 0 0 1 5 51 45 45 0 0 1-2 26v1a55 55 0 0 1-12 19 88 88 0 0 1-28 30 361 361 0 0 1-65 34l-7 3a252 252 0 0 0-28 12c-16 8-32 15-47 23a566 566 0 0 0-97 50c35 31 73 64 116 99a533 533 0 0 1 70-37l29-14c14-6 30-13 46-21a680 680 0 0 0 89-44c78-49 109-127 96-235z m-539 408a132 132 0 0 0-2 44 221 221 0 0 0 120 184 474 474 0 0 0 73 25 215 215 0 0 1 28 8l11 2v71h89v-71l13-3c84-17 141-54 176-114a235 235 0 0 0 30-138h-159c-1 5-1 11-3 16v2a293 293 0 0 1-9 41 96 96 0 0 1-102 68c-38-2-65-11-80-33l-12-2-4-1a24 24 0 0 0-8-4l-15-4a280 280 0 0 1-65-35l-55-37c-9-7-19-13-26-19z" horiz-adv-x="942" />

<glyph glyph-name="data-center" unicode="&#xe814;" d="M913 13a82 82 0 0 1-75-51h-266a84 84 0 0 1-44 45v109h376a29 29 0 0 1 29 28v146a29 29 0 0 1-28 29h-815a29 29 0 0 1-20-9 29 29 0 0 1-8-20v-147a29 29 0 0 1 28-28h377v-109a84 84 0 0 1-45-45h-266a82 82 0 0 1-75 52 82 82 0 0 1 0-164 81 81 0 0 1 75 52h266a81 81 0 0 1 150 0h266a81 81 0 1 1 75 112z m-730 174a31 31 0 0 0 0 61 31 31 0 0 0 0-61z m121 0a31 31 0 0 0 0 61 31 31 0 0 0 0-61z m122 0a31 31 0 1 0 31 30 31 31 0 0 0-31-30z m-345-276a21 21 0 0 0 0 41 21 21 0 0 0 0-41z m416 0a21 21 0 1 0 21 21 20 20 0 0 0-21-21z m416 0a21 21 0 1 0 21 21 20 20 0 0 0-21-21z m-823 735h814a28 28 0 0 1 29 29v147a29 29 0 0 1-29 28h-814a29 29 0 0 1-28-28v-147a28 28 0 0 1 28-29z m336 133a31 31 0 1 0-29-31 31 31 0 0 0 29 31z m-122 0a31 31 0 0 0 0-61 31 31 0 0 0 0 61z m-121 0a31 31 0 0 0 0-61 31 31 0 0 0 0 61z m-94-398h815a29 29 0 0 1 29 28v147a29 29 0 0 1-28 29h-815a29 29 0 0 1-28-29v-147a29 29 0 0 1 28-28z m337 132a31 31 0 1 0-29-30 31 31 0 0 0 29 30z m-122 0a31 31 0 1 0-31-30 31 31 0 0 0 31 30z m-122 0a31 31 0 1 0-30-30 31 31 0 0 0 31 30z" horiz-adv-x="994" />

<glyph glyph-name="data-protect" unicode="&#xe815;" d="M756 321a75 75 0 0 0-42-67l-12-6v-143a21 21 0 0 0-21-22 22 22 0 0 0-22 22v143l-11 6a75 75 0 0 0-42 67 75 75 0 1 0 150 0z m605 421v-789a103 103 0 0 0-103-103h-1156a103 103 0 0 0-102 103v535a104 104 0 0 0 102 103h397a186 186 0 0 1 113 58c60 54 97 89 159 141a221 221 0 0 0 119 60h369a107 107 0 0 0 102-108z m-564-421a118 118 0 1 1-181-98v-118a65 65 0 1 1 129 0v118a117 117 0 0 1 54 98z m-123 506a221 221 0 0 1-119-59c-46-38-99-90-145-132h65c33 33 76 72 108 99a197 197 0 0 0 93 50h22l43 42z m-382-191c21 21 39 40 67 67a159 159 0 0 0 93 50h8a121 121 0 0 0 23 20 102 102 0 0 0 29 23h-63a197 197 0 0 1-118-59c-43-40-69-68-104-101z" horiz-adv-x="1362" />

<glyph glyph-name="dependencies" unicode="&#xe816;" d="M542 850l174-262h-349z m-253-710h-289v-290h289v290z m650 0a146 146 0 1 1 145-146 146 146 0 0 1-145 146z m-306-60a24 24 0 0 1-18-7 24 24 0 0 1 0-34l19-20h-244a24 24 0 0 1 0-48h244l-19-19h0a24 24 0 0 1 35-34l58 59h0a26 26 0 0 1 5 4 24 24 0 0 1-5 34l-59 59a24 24 0 0 1-16 7z m130 433a24 24 0 0 1-24-21l-22-80a24 24 0 0 1 47-12l7 26 121-212a24 24 0 1 1 42 24l-121 212 26-7a24 24 0 1 1 13 47c-30 8-60 17-90 24z m-421 0a24 24 0 0 1-22-13l-121-211-8 27a24 24 0 1 1-45-13c7-28 14-55 22-83a27 27 0 0 1 29-17l83 22a24 24 0 0 1-13 47l-26-7 121 211a24 24 0 0 1-20 37z" horiz-adv-x="1083" />

<glyph glyph-name="deployment" unicode="&#xe817;" d="M1196 140l-224 146a1 1 0 0 0 0 2c-1 0-1 0-3 0s-1 0-2 1h-756s0 0-3-1h-3s-3 0-5-3l-187-125a28 28 0 0 1-12-31 30 30 0 0 1 29-21h156s0-2 0-3v-255h801v237h194a28 28 0 0 1 28 20 33 33 0 0 1-13 33z m-660 25h-412l102 67h413z m390-258h-169a91 91 0 0 1 3 21v278l168-107z m39 238l-138 88h121l135-88z m-718 342a137 137 0 0 0 106 132 88 88 0 0 0-15 50 91 91 0 0 0 150 68 183 183 0 0 0 352-68c0-6 0-11 0-16a159 159 0 0 0-68-302h-388a136 136 0 0 0-137 136z" horiz-adv-x="1208" />

<glyph glyph-name="develop" unicode="&#xe818;" d="M1040 247a131 131 0 0 0-37-102l-184-184v-111h-258l0 142a262 262 0 0 0 77 185l157 157a53 53 0 0 0 75 0l3-4a56 56 0 0 0-5-73l-74-76a17 17 0 0 1 0-24l2-2a18 18 0 0 1 23 2l87 87a62 62 0 0 1 18 49l-14 202a56 56 0 1 0 110 6h0z m-817-397h255l0 142a262 262 0 0 1-76 185l-158 157a53 53 0 0 1-75 0l-2-4a56 56 0 0 1 5-73l75-76a17 17 0 0 0 0-24l-3-2a18 18 0 0 0-23 2l-86 88a62 62 0 0 0-18 48l13 202a56 56 0 1 1-110 6l-20-254a131 131 0 0 1 38-102l185-184z m525 855l-26-37a226 226 0 0 0 23-55l44-8a34 34 0 0 0 28-34v-38a35 35 0 0 0-28-34l-44-8a223 223 0 0 0-23-55l26-37a34 34 0 0 0-4-44l-28-27a34 34 0 0 0-44-3l-37 25a220 220 0 0 0-56-22l-7-46a34 34 0 0 0-35-27h-35a34 34 0 0 0-35 27l-7 45a220 220 0 0 0-56 23l-38-26a34 34 0 0 0-43 4l-28 28a34 34 0 0 0-4 44l26 37a223 223 0 0 0-22 56l-44 7a34 34 0 0 0-28 34v37a34 34 0 0 0 28 34l44 8a238 238 0 0 0 24 56l-26 36a35 35 0 0 0 4 44l27 28a34 34 0 0 0 44 4l37-26a238 238 0 0 0 56 23l6 44a35 35 0 0 0 35 28h37a34 34 0 0 0 35-28l8-44a226 226 0 0 0 55-23l37 26a34 34 0 0 0 44-4l28-28a34 34 0 0 0 2-44z m-126-153a102 102 0 1 1-102-102 102 102 0 0 1 102 102z" horiz-adv-x="1040" />

<glyph glyph-name="dev-ops" unicode="&#xe819;" d="M0-118a32 32 0 0 1 32-32h1224a32 32 0 0 1 33 32v677h-1289z m824 230l117 117-107 105a30 30 0 0 0 0 41 30 30 0 0 0 41 0l124-123a30 30 0 0 0 0-46l-134-134a30 30 0 0 0-41 0 30 30 0 0 0 0 40z m-288-24l185 299a27 27 0 0 0 39 9 27 27 0 0 0 9-39l-184-300a27 27 0 0 0-39-9 28 28 0 0 0-10 40z m-247 164l124 123a30 30 0 0 0 41 0 30 30 0 0 0 0-41l-106-105 117-117a30 30 0 0 0 0-40 30 30 0 0 0-41 0l-135 134a30 30 0 0 0 0 46z m967 598h-1223a33 33 0 0 1-33-33v-213h1289v213a33 33 0 0 1-33 33z m-1110-159a27 27 0 1 0 27 27 26 26 0 0 0-27-27z m89 0a27 27 0 1 0 27 27 27 27 0 0 0-27-27z m96 0a27 27 0 1 0 0 54 28 28 0 0 0 27-27 27 27 0 0 0-27-27z m815 9a10 10 0 0 0-11-10h-491a10 10 0 0 0-10 10v35a10 10 0 0 0 10 10h491a10 10 0 0 0 11-10z" horiz-adv-x="1289" />

<glyph glyph-name="tool-chain" unicode="&#xe81a;" d="M470 253a104 104 0 0 1-19-85l-61-61a148 148 0 0 1-44-96 168 168 0 0 0-50-110 170 170 0 0 0-179-42l100 100-106 109-102-102a175 175 0 0 0 42 179 169 169 0 0 0 112 50 154 154 0 0 1 96 44l112 114z m191 150a60 60 0 0 0 21-3l60 61a151 151 0 0 0 96 44 166 166 0 0 1 110 50 174 174 0 0 1 42 179l-100-100-107 106 101 100a173 173 0 0 1-230-156 152 152 0 0 0-43-95l-114-111 99-97a106 106 0 0 0 65 22z m320-338l-276 277a60 60 0 0 1-87 0l-19-19-398 394-50 83-81 50-70-69 50-83 83-50 395-393-19-19a60 60 0 0 1 0-87l278-279a61 61 0 0 1 88 0l106 106a62 62 0 0 1 0 89z" horiz-adv-x="1000" />

<glyph glyph-name="discover" unicode="&#xe81b;" d="M902 342l-21-51-248 79 58 139 197-92 44 106 39-16z m-143-462a21 21 0 0 0-10-28 22 22 0 0 0-9-2 21 21 0 0 0-19 12l-56 114h-209l-51-114a21 21 0 0 0-19-12 19 19 0 0 0-9 2 21 21 0 0 0-10 28l119 263a94 94 0 0 0-16 52 96 96 0 0 0 75 94v68l-291 95 104 250 311-139-82-195v-79a96 96 0 0 0 76-94 96 96 0 0 0-25-65z m-114 138l-43 88a96 96 0 0 0-36-7 94 94 0 0 0-48 13l-42-94z m-491 832l-154-368 199-51 136 323z" horiz-adv-x="972" />

<glyph glyph-name="edu" unicode="&#xe81c;" d="M50 667v-766h530a666 666 0 0 1-426 94h-3a25 25 0 0 0-25 23q0 399 0 796a25 25 0 0 0 20 24 472 472 0 0 0 100 12h0c146 0 292-67 437-176a25 25 0 0 0 10-20l0-779v0a25 25 0 0 0-27-24h-641a25 25 0 0 0-25 24v792a25 25 0 0 0 26 25 25 25 0 0 0 24-25z m684-13l-2-779a25 25 0 0 1 25-25h644a25 25 0 0 1 26 25v792a25 25 0 0 1-25 25 25 25 0 0 1-26-25v-767h-530a667 667 0 0 0 426 94 25 25 0 0 1 28 22 10 10 0 0 1 0 3q0 399 0 796a25 25 0 0 1-20 24 466 466 0 0 1-100 11h0c-145 0-292-67-437-176a25 25 0 0 1-9-20z" horiz-adv-x="1427" />

<glyph glyph-name="empowerment" unicode="&#xe81d;" d="M470 850a385 385 0 0 1-384-382h0v-64l-78-149c-20-37 0-68 41-68h37v-141a81 81 0 0 1 80-81l110 17v-111h0a22 22 0 0 1 27-21l398 70a34 34 0 0 1 27 32v235a382 382 0 0 1-258 663z m83-348l-116-201s0 0 0 0c-2-5-5-9-12-7s-5 9-4 14c3 17 6 33 9 49 6 30 11 59 17 89 0 2 0 5 1 9h-75c-13 0-16 5-9 16l115 200 0 0c3 5 6 10 12 7s5-8 4-13c-3-17-6-34-9-50-5-30-11-59-17-89a65 65 0 0 1 0-8h75c13 0 16-6 9-16z" horiz-adv-x="852" />

<glyph glyph-name="ahead-newartboard-38" unicode="&#xe81e;" d="M262 635s0 1 0 2c0 8 0 16 0 24a15 15 0 0 0 4 6 4 4 0 0 0 3 0 7 7 0 0 0 6-1h0v0c0 6 9 64 65 59a154 154 0 0 1 93-2h13a108 108 0 0 0 45-17c0 6-6 13-5 17l5-3a127 127 0 0 0 27-53v0h0a7 7 0 0 0 6 2l1 0c7-3 9-17 6-33a48 48 0 0 0-12-27 8 8 0 0 0-6-2 6 6 0 0 0-3 2 192 192 0 0 0-60-91 87 87 0 0 0-53-20 87 87 0 0 0-53 19 193 193 0 0 0-60 92 6 6 0 0 0-4-2 9 9 0 0 0-7 3 54 54 0 0 0-11 25z m456-752h-638a17 17 0 0 1-16-17 16 16 0 0 1 16-16h638a16 16 0 0 1 16 16 17 17 0 0 1-16 17z m-342 458h317c-33 115-95 119-109 122-26 7-58 4-75 9-2-16-50-71-82-106l-15 54a34 34 0 0 1 13 31h-52a35 35 0 0 1 12-31l-14-53c-31 34-80 89-82 106-17-6-49-3-75-9-13-3-76-7-109-123h271z m-299-410l-77 360a38 38 0 0 0 38 38h722a38 38 0 0 0 38-38l-77-360a38 38 0 0 0-38-39h-568a38 38 0 0 0-38 39z m302 176a20 20 0 0 1 20-20 20 20 0 0 1 20 16 12 12 0 0 1 0 4 20 20 0 0 1-41 0z m-143 531c-4 26 0 48 11 50h0v0h0a148 148 0 0 0 4 34 154 154 0 0 0 15 57c24 47 78 75 148 71 82-5 133-57 134-144 0-6 0-13 0-18 9-4 13-25 9-49s-14-40-23-43a247 247 0 0 0-55-88 145 145 0 0 0-46-32 92 92 0 0 0-70 0 136 136 0 0 0-45 30 248 248 0 0 0-57 90c-10 1-21 19-25 42z m26-1s0-2 0-2a52 52 0 0 1 11-26 9 9 0 0 1 7-3 8 8 0 0 1 3 1 193 193 0 0 1 61-90 87 87 0 0 1 52-20 87 87 0 0 1 54 21 192 192 0 0 1 59 90 6 6 0 0 1 3-2 8 8 0 0 1 7 3 50 50 0 0 1 12 26c3 17 0 31-6 34l-1 0a7 7 0 0 1-6-2h0v0a129 129 0 0 1-26 54l-6 3c0-4 4-10 5-16a108 108 0 0 1-44 16h-14a154 154 0 0 0-93 2c-56 5-65-53-66-59v0h0a7 7 0 0 1-5 2 4 4 0 0 1-2 0 13 13 0 0 1-4-7c-1-9-1-17-1-25z" horiz-adv-x="798" />

<glyph glyph-name="ahead-newartboard-39" unicode="&#xe81f;" d="M86 167c62-125 159-222 301-311a36 36 0 0 1 40 0c143 89 240 187 301 311s87 270 87 461h0a38 38 0 0 1-20 33l-371 185a34 34 0 0 1-33 0l-366-184a36 36 0 0 1-25-34c0-191 25-338 86-461z m135 170a37 37 0 1 0 53 52l71-71 214 215a37 37 0 0 0 52 0 37 37 0 0 0 0-53l-240-240a37 37 0 0 0-53 0z" horiz-adv-x="815" />

<glyph glyph-name="enterprise" unicode="&#xe820;" d="M1035 486a29 29 0 0 1-43 0l-82-94a228 228 0 0 0-345 5 203 203 0 0 0 0 263l148 171c-50 26-112 19-167 19a190 190 0 0 1-134-55l-132-135h-244a36 36 0 0 1-36-34v-402a38 38 0 0 1 36-36h121c47 0 68-2 93-26l248-220a285 285 0 0 1 189-92 148 148 0 0 1 104 38 121 121 0 0 1 154 78 134 134 0 0 1 106 38 117 117 0 0 1 42 80 58 58 0 0 1 36-9 111 111 0 0 1 89 183c-59 77-118 156-183 228z m555 149h-237l-131 150a190 190 0 0 1-140 65h-140a162 162 0 0 1-121-56l-174-204a97 97 0 0 1 0-124 122 122 0 0 1 184-3l143 163a48 48 0 0 0 73 0c70-82 222-260 253-300a190 190 0 0 0 47-109 62 62 0 0 1 63-55h180a36 36 0 0 1 36 36v402a36 36 0 0 1-36 35z" horiz-adv-x="1626" />

<glyph glyph-name="service-mgmt" unicode="&#xe821;" d="M75-30c-2 28 0 86 51 99a415 415 0 0 1 121 56l51-161 7-21 23 64c-57 79 15 76 15 76s72 3 15-76l22-64 7 22v0l8 25h0l43 135a412 412 0 0 1 121-55c50-13 53-71 51-100a212 212 0 0 0-4-56s-98-64-262-64v0c-165 0-263 64-263 64a212 212 0 0 0-6 56z m401 334h0c27 131-35 135-35 135a88 88 0 0 1-34 32 114 114 0 0 1-70 15 96 96 0 0 1-28-6h0a126 126 0 0 1-31-15 160 160 0 0 1-31-27 128 128 0 0 1-34-60 113 113 0 0 1 2-67c-11 1-24-5-11-49 9-32 17-41 24-42 7-46 32-106 112-112 79 3 103 61 111 107 7-4 17-2 29 40 10 34 5 46-4 49z m-375-40a344 344 0 1 0 485 485 344 344 0 0 0 0-485 341 341 0 0 0-73-56 198 198 0 0 1 12 32 134 134 0 0 1 6 51 290 290 0 0 1 64 79h-67q0 8-1 15a132 132 0 0 1-12 43h103a287 287 0 0 1 11 79 283 283 0 0 1-11 79h-114a586 586 0 0 0 5-76 594 594 0 0 0-4-65l0 1a87 87 0 0 1-34 27 140 140 0 0 1-20 20c0 6 0 12 0 18a521 521 0 0 1-6 75h-204a534 534 0 0 1-7-83c0-7 0-15 0-22q-8-7-16-15a171 171 0 0 1-44-81 153 153 0 0 1-3-16h-78a290 290 0 0 1 66-81 151 151 0 0 1 7-42 175 175 0 0 1 18-43 342 342 0 0 0-83 61z m345 509a582 582 0 0 0 47-129h101a288 288 0 0 1-148 129z m-192-129h179a510 510 0 0 1-65 147c-8 0-16 1-25 1s-14 0-21 0a509 509 0 0 1-68-148z m-161 0h101a574 574 0 0 0 51 130 287 287 0 0 1-152-130z m-24-216h113a577 577 0 0 0-5 75 563 563 0 0 0 5 83h-113a283 283 0 0 1-11-79 280 280 0 0 1 11-79z" horiz-adv-x="687" />

<glyph glyph-name="expansion" unicode="&#xe822;" d="M500 850a500 500 0 1 1 500-500 498 498 0 0 1-500 500z m-29-439l-32-31a22 22 0 0 0-32 0l-91 90a12 12 0 0 1-21-9v-22a21 21 0 0 0-22-23h-46a21 21 0 0 0-22 23v181a22 22 0 0 0 22 23h182a22 22 0 0 0 23-23v-45a22 22 0 0 0-23-23h-23a12 12 0 0 1-9-20l91-91a18 18 0 0 0 3-30z m325-334a22 22 0 0 0-23-23h-183a22 22 0 0 0-23 23v46a22 22 0 0 0 23 22h23a13 13 0 0 1 9 21l-91 91a22 22 0 0 0 0 32l32 32a22 22 0 0 0 32 0l91-91a12 12 0 0 1 21 9v21a22 22 0 0 0 22 23h46a22 22 0 0 0 23-23v-184z" horiz-adv-x="1000" />

<glyph glyph-name="extend" unicode="&#xe823;" d="M982 305l-158-157a104 104 0 0 1-29 80c-42 43-115 38-164-11s-53-121-11-164a103 103 0 0 1 81-27l-157-158a61 61 0 0 0-88 0l-151 151a134 134 0 0 0-35-118c-54-54-148-47-207 11s-66 153-11 208a134 134 0 0 0 117 35l-151 151a61 61 0 0 0 0 88l159 158a99 99 0 0 1 28-81c42-42 115-37 164 12s53 122 11 164a103 103 0 0 1-81 27l155 158a61 61 0 0 0 88 0l151-151a134 134 0 0 0 36 117c54 55 147 48 207-11s66-153 11-207a134 134 0 0 0-117-35l150-151a66 66 0 0 0 2-89z" horiz-adv-x="998" />

<glyph glyph-name="financial-mgmt" unicode="&#xe824;" d="M648 450a175 175 0 0 1-38 38 169 169 0 0 1-74 31 172 172 0 0 1-54 0 168 168 0 0 1-74-31 173 173 0 0 1-68-111 186 186 0 0 1 0-54 172 172 0 0 1 30-73 164 164 0 0 1 38-38 168 168 0 0 1 74-30 171 171 0 0 1 54 0 168 168 0 0 1 74 30 173 173 0 0 1 38 38 174 174 0 0 1 0 202z m-113-86a41 41 0 0 0 41-40h0v-21a44 44 0 0 0-46-45h-6v-10a15 15 0 0 0-30 0v10h-10a41 41 0 0 0-41 41h0a15 15 0 0 0 30 0 11 11 0 0 1 11-10h10v46h-10a41 41 0 0 0-41 41h0v20a44 44 0 0 0 44 45h6v11a15 15 0 0 0 31 0v-11h10a41 41 0 0 0 41-41h0a15 15 0 0 0-30 0 11 11 0 0 1-11 11h-10v-47z m-11-30h10a11 11 0 0 0 11-10v-22a15 15 0 0 0-15-15h-6z m-51 63a15 15 0 0 0 16 15h5v-47h-10a11 11 0 0 0-11 11v22z m71-533a15 15 0 0 0-15-16 507 507 0 0 0-499 429l-30-3 38 82 51-75-30-2a477 477 0 0 1 470-399 15 15 0 0 0 15-15z m234 570a268 268 0 0 1-20 46 15 15 0 0 0 3 18l55 56-103 103-55-55a15 15 0 0 0-18-3 276 276 0 0 1-47 19 15 15 0 0 0-11 16v77h-146v-78a15 15 0 0 0-10-15 254 254 0 0 1-47-20 15 15 0 0 0-18 3l-55 55-104-103 55-55a15 15 0 0 0 3-18 253 253 0 0 1-19-47 15 15 0 0 0-15-10h-78v-147h78a15 15 0 0 0 15-10 295 295 0 0 1 20-47 14 14 0 0 0-3-18l-55-55 103-104 56 56a15 15 0 0 0 17 2 276 276 0 0 1 47-19 15 15 0 0 0 11-15v-79h146v80a16 16 0 0 0 11 15 258 258 0 0 1 46 20 15 15 0 0 0 18-3l55-55 104 103-55 55a14 14 0 0 0-3 18 295 295 0 0 1 19 47 15 15 0 0 0 15 11h79v145h-80a16 16 0 0 0-14 11z m-69-116a199 199 0 0 0-36-87 195 195 0 0 0-45-44 200 200 0 0 0-86-36 205 205 0 0 0-64 0 203 203 0 0 0-168 168 202 202 0 0 0 168 232 218 218 0 0 0 64 0 203 203 0 0 0 168-168 222 222 0 0 0 1-33 219 219 0 0 0-2-32z m309 108l-38-82-51 75 30 2a477 477 0 0 1-470 399 15 15 0 0 0-15 15 15 15 0 0 0 15 15 507 507 0 0 0 500-426z" horiz-adv-x="1018" />

<glyph glyph-name="goal" unicode="&#xe825;" d="M0 300a450 450 0 0 0 656 399 86 86 0 0 1 0-16l5-65-37-37a331 331 0 1 1 107-107l41 41 57-5h6l12 0a450 450 0 1 0-847-210z m450 116h8l83 83 2 1a221 221 0 1 1 128-200 222 222 0 0 1-21 93l-2-1-83-83c0-3 0-6 0-9a116 116 0 1 0-116 116z m463 284l27 27a31 31 0 0 1 0 44l-19 19a31 31 0 0 1-44 0l-30-31-7 81a10 10 0 0 1-10 10 10 10 0 0 1-7-3l-122-120a52 52 0 0 1-15-41v-6l6-75-44-44-78-78-2-1-75-76-32-33a27 27 0 0 1-7-16l-2-27a26 26 0 0 1 26-28h1l28 1a27 27 0 0 1 17 8l33 33 74 76 2 2 78 78 47 47 69-5h7a53 53 0 0 1 37 15l120 120a10 10 0 0 1-6 18z" horiz-adv-x="995" />

<glyph glyph-name="governance" unicode="&#xe826;" d="M990-97c-2-3-5-6-7-10a78 78 0 0 0-131-14 201 201 0 0 0-16 18l-248 301c-37 46-75 91-110 133-35-17-67-33-99-47a31 31 0 0 0-40 11c-55 64-110 127-167 190a34 34 0 0 0-7 45 481 481 0 0 0 158 169 666 666 0 0 0 94 50 29 29 0 0 0 39-9q82-97 169-192a31 31 0 0 0 5-44l-60-91 10-11q186-200 372-399a122 122 0 0 0 41-90c-1-4-1-7-3-10z m-505 847l155-175a60 60 0 1 1 90 80l-154 175a61 61 0 0 1-91-80z m-420-373l155-174a60 60 0 0 1 90 80l-155 174a60 60 0 0 1-90-80z m409-524a71 71 0 0 1 19 2 52 52 0 0 1 39 48 59 59 0 0 1-63 75h-414a46 46 0 0 1-43-20 83 83 0 0 1-12-31 58 58 0 0 1 63-74h411z m-56 148a30 30 0 0 1 33 27 91 91 0 0 1 2 26 34 34 0 0 1-39 36h-302a28 28 0 0 1-28-18 66 66 0 0 1-1-40 32 32 0 0 1 36-31h299z" horiz-adv-x="993" />

<glyph glyph-name="compliance" unicode="&#xe827;" d="M563 642h-375v104a63 63 0 0 0 62 62h59a13 13 0 0 1 11 8 63 63 0 0 0 111 0 13 13 0 0 1 10-8h59a63 63 0 0 0 63-62z m187 41v-771a63 63 0 0 0-61-62h-626a63 63 0 0 0-63 62v771a63 63 0 0 0 63 63h83v-146h458v146h85a63 63 0 0 0 61-63z m-463-549a21 21 0 0 1-29 3l-110-92-29 28a21 21 0 0 1-29 0 21 21 0 0 1 0-29l41-42a21 21 0 0 1 28-1l125 104a21 21 0 0 1 3 29z m0 209a21 21 0 0 1-29 2l-110-92-29 28a20 20 0 0 1-29 0 21 21 0 0 1 0-29l41-42a21 21 0 0 1 28 0l125 105a21 21 0 0 1 3 28z m0 208a21 21 0 0 1-29 3l-110-92-29 28a20 20 0 0 1-29 0 21 21 0 0 1 0-30l41-41a21 21 0 0 1 28-2l125 105a21 21 0 0 1 3 29z m359-513h-271v-41h271z m0 84h-271v-42h271z m0 125h-271v-42h271z m0 83h-271v-42h271z m0 125h-271v-42h271z m0 83h-271v-41h271z" horiz-adv-x="750" />

<glyph glyph-name="growth" unicode="&#xe828;" d="M875 767h-375v41a42 42 0 0 1-83 0v-41h-375a42 42 0 0 1-42-42v-667a42 42 0 0 1 42-41h182l-51-107a42 42 0 0 1 73-37l72 144h281l73-144a41 41 0 0 1 38-23 40 40 0 0 1 18 4 41 41 0 0 1 19 56l-52 107h183a42 42 0 0 1 41 41v667a42 42 0 0 1-44 42z m-132-267l-196-197a41 41 0 0 0-30-12 42 42 0 0 0-29 12l-88 89-167-167a42 42 0 1 0-59 59l196 196a41 41 0 0 0 30 12 42 42 0 0 0 29-12l88-88 167 167a42 42 0 1 0 59-59z" horiz-adv-x="917" />

<glyph glyph-name="infrastructure" unicode="&#xe829;" d="M0 744h179v-45h-134v-328h134v-42h-134v-328h134v-45h-179z m1000 106v-259h-719v259z m-113-106h-142v-45h142z m-606-265h719v-260h-719z m464-151h142v43h-142z m-464-218h719v-260h-719z m464-154h142v45h-142z" horiz-adv-x="1000" />

<glyph glyph-name="indentity" unicode="&#xe82a;" d="M364 850a91 91 0 0 1-88-68h-95v-113h365v113h-94a91 91 0 0 1-88 68z m-364-114v-886h727v886h-159v-90h-409v90z m261-159a46 46 0 1 0-45-45 46 46 0 0 0 45 45z m137-91h193v-45h-193z m-137-11c42 0 91-16 91-79h-180c-1 63 47 79 89 79z m-125-148h455v-45h-455z m0-159h455v-45h-455z m0-159h455v-45h-455z" horiz-adv-x="727" />

<glyph glyph-name="implement" unicode="&#xe82b;" d="M0 534v38a34 34 0 0 0 28 33l45 8a236 236 0 0 0 23 56l-25 37a34 34 0 0 0 4 45l24 25a34 34 0 0 0 45 4l37-25a236 236 0 0 0 56 23l7 45a34 34 0 0 0 34 27h38a34 34 0 0 0 34-28l8-45a235 235 0 0 0 55-23l37 25a34 34 0 0 0 44-3l28-27a34 34 0 0 0 3-43l-25-37a242 242 0 0 0 17-42 105 105 0 0 1-21-48l-4-21-11-4-17 12a104 104 0 0 1-60 19c-4 0-7 0-10 0a102 102 0 1 1-128-128 104 104 0 0 1 18-70l12-17-5-12-20-3a106 106 0 0 1-47-22 232 232 0 0 0-42 19l-38-27a34 34 0 0 0-45 3l-24 28a34 34 0 0 0-4 44l24 37a236 236 0 0 0-23 55l-44 8a34 34 0 0 0-28 34z m476-50a286 286 0 0 0 70 28l10 57a43 43 0 0 0 43 35h47a44 44 0 0 0 43-35l10-57a291 291 0 0 0 71-29l47 33a44 44 0 0 0 56-5l33-34a43 43 0 0 0 5-55l-33-47a288 288 0 0 0 29-71l57-10a43 43 0 0 0 36-43v-47a43 43 0 0 0-36-42l-57-11a290 290 0 0 0-29-71l33-47a44 44 0 0 0-5-56l-34-34a44 44 0 0 0-55-4l-47 33a292 292 0 0 0-70-29l-10-57a44 44 0 0 0-44-36h-47a44 44 0 0 0-43 36l-10 56a290 290 0 0 0-70 30l-47-33a43 43 0 0 0-56 4l-34 34a44 44 0 0 0-5 56l33 47a291 291 0 0 0-29 71l-57 10a43 43 0 0 0-36 43v47a44 44 0 0 0 36 43l57 10a301 301 0 0 0 29 70l-33 47a44 44 0 0 0 5 55l34 35a44 44 0 0 0 55 5z m46-289l22-22 25-25a34 34 0 0 1 47 0h0l25 25 86 85a34 34 0 0 1 0 48h0a34 34 0 0 1-48 0h0l-86-85-22 22a34 34 0 0 1-48 0h0a34 34 0 0 1-1-48z" horiz-adv-x="1000" />

<glyph glyph-name="investment" unicode="&#xe82c;" d="M162 778a65 65 0 0 0 79 70 521 521 0 0 1 109-11 458 458 0 0 1 108 12 65 65 0 0 0 78-71 242 242 0 0 0-55-122h-264a250 250 0 0 0-55 122z m538-621c0-225-156-307-350-307s-350 81-350 307c0 165 85 362 206 455h287c122-93 206-290 207-455z m-241-3a109 109 0 0 1-109 108 46 46 0 1 0 34 78 31 31 0 1 1 46 43 110 110 0 0 1-48 30v21a31 31 0 0 1-62 0v-21a109 109 0 0 1 31-213 46 46 0 1 0-34-78 31 31 0 1 1-45-42 108 108 0 0 1 48-30v-21a31 31 0 0 1 62 0v21a109 109 0 0 1 77 104z" horiz-adv-x="700" />

<glyph glyph-name="lifecycle" unicode="&#xe82d;" d="M680 485c-5-470-243-323-275-301l-38-38a29 29 0 0 0-40 0l-1 0a30 30 0 0 0 2 41l152 151a3 3 0 0 1 0 5 4 4 0 0 1-3 0 385 385 0 0 1-139-68c-30 81-30 220 328 225a14 14 0 0 0 14-14z m316-5l-52-16h0a467 467 0 0 1-193 251l-96-62a366 366 0 0 0 193-220l-4-1h0l-48-15a9 9 0 0 1-5-11 7 7 0 0 1 3-4l149-120a9 9 0 0 1 12 1 14 14 0 0 1 2 3l49 184a9 9 0 0 1-5 11 9 9 0 0 1-5-1z m-87-242l0 0-43 35a366 366 0 0 0-143-249l-3 4h0l-31 41a9 9 0 0 1-12 1 9 9 0 0 1-3-4l-64-179a9 9 0 0 1 5-11 9 9 0 0 1 3 0l190 13a9 9 0 0 1 8 9 8 8 0 0 1-2 5l-32 43h0a466 466 0 0 1 171 257z m-594-163l-190 7a9 9 0 0 1-9-8 10 10 0 0 1 0-4l71-177a9 9 0 0 1 11-4 7 7 0 0 1 4 3l31 43h0a467 467 0 0 1 308-84l39 108a366 366 0 0 0-288 59l2 3h0l28 40a9 9 0 0 1-3 12 14 14 0 0 1-4 2z m-258 393a466 466 0 0 1 10-328l115-4a367 367 0 0 0-30 300l5-2h0l46-16a9 9 0 0 1 10 6 8 8 0 0 1 0 5l-47 184a9 9 0 0 1-11 6 7 7 0 0 1-3-1l-150-118a9 9 0 0 1-1-12 7 7 0 0 1 4-3z m617 276l-160 105a9 9 0 0 1-12-3 11 11 0 0 1-2-4v-54h0a466 466 0 0 1-294-105l28-111a366 366 0 0 0 267 115v-5h0v-49a9 9 0 0 1 13-7l160 104a9 9 0 0 1 3 12 8 8 0 0 1-3 2z" horiz-adv-x="1007" />

<glyph glyph-name="log" unicode="&#xe82e;" d="M0 850v-1000h636l114 114v886z m596-308h41v-90h-41z m-79 81h41v-171h-41z m-80 80h41v-251h-41z m-186 32a143 143 0 0 0 143-143h-143z m-23-22v-144h144a143 143 0 1 0-143 144z m-63-707l-52 51 20 21 30-29 70 86 22-19z m0 168l-52 50 20 21 30-29 70 86 22-19z m472-135h-326v45h326v-45z m0 168h-326v47h326v-47z m2-323v77h78z" horiz-adv-x="750" />

<glyph glyph-name="mgmt" unicode="&#xe82f;" d="M849 628l-368 212a75 75 0 0 1-76 0l-367-212a77 77 0 0 1-38-65v-425a75 75 0 0 1 38-65l367-212a78 78 0 0 1 38-10 67 67 0 0 1 38 10l367 212a78 78 0 0 1 38 65v424a74 74 0 0 1-37 66z m-178-253a60 60 0 0 0 59-60 60 60 0 1 0-59 60z m-223 271a60 60 0 1 0 0-118 59 59 0 0 0-59 59 61 61 0 0 0 59 59z m-105-193a51 51 0 0 0 51 51h109a50 50 0 0 0 51-51v-47h-211z m-124-90a60 60 0 0 0 60-59 59 59 0 0 0-60-60 60 60 0 1 0 0 119z m107-242h-212v47a51 51 0 0 0 51 51h109a50 50 0 0 0 51-51v-47z m222 90h-210v44h83v118h43v-118h83z m227-77h-210v46a51 51 0 0 0 52 51h108a50 50 0 0 0 51-51z" horiz-adv-x="886" />

<glyph glyph-name="marketing" unicode="&#xe830;" d="M1097 821v-776a29 29 0 0 0-51-19h0c-146 175-413 232-540 234l-40-33 15-17a66 66 0 0 0 7-81 25 25 0 0 1 0-19l51-93a68 68 0 0 1 21-22 39 39 0 0 0 25-31 48 48 0 0 0-23-45l-79-59a55 55 0 0 0-32-12 46 46 0 0 0-12 0 53 53 0 0 0-35 28l-123 241a35 35 0 0 1-19 15 69 69 0 0 0-55 58l-9 70h-82a116 116 0 0 0-116 116v115a116 116 0 0 0 116 116h383c124 0 398 57 547 233h0a29 29 0 0 0 22 10 29 29 0 0 0 29-29z m168-725a29 29 0 0 1 14 38l-76 150a29 29 0 1 1-51-25l75-151a29 29 0 0 1 38-12z m-62 487l76 150a29 29 0 1 1-52 26l-75-150a29 29 0 0 1 51-26z m240-149h0a29 29 0 0 1-28 29h-150a29 29 0 0 1-29-29h0a29 29 0 0 1 29-29h150a29 29 0 0 1 28 29z m-46-192h0a29 29 0 0 1-9 40l-131 83a29 29 0 0 1-40-9h0a29 29 0 0 1 9-40l131-83a29 29 0 0 1 40 9z m-140 260l131 84a29 29 0 0 1 9 40h0a29 29 0 0 1-40 9l-131-84a29 29 0 0 1-9-40h0a29 29 0 0 1 41-9z m-120 14a78 78 0 0 1-41 11 89 89 0 0 1-84-93 89 89 0 0 1 84-93 78 78 0 0 1 41 12 99 99 0 0 1 0 164z" horiz-adv-x="1443" />

<glyph glyph-name="migration" unicode="&#xe831;" d="M638 354m20 0v3a63 63 0 0 1-26 62v-127c26 16 26 36 26 61z m-421-452h131v53h-131z m656 0h107v53h-105z m-340 316h79v-368h-632v1000h632v-368h-79v289h-500v-765h500v212z m-185-263h-131v-53h131z m895 895v-1000h-631v368h79v-212h500v765h-500v-289h-79v368z m-263-895h-105v-53h105z m44 407l-250 180c-8 5-29 0-29-9v-105h-265v106c0 10-21 14-30 9l-251-180c-8-5-4-13 4-18l246-180c8-5 31 0 31 9v97h263v-97c0-10 23-14 31-9l246 180c8 5 13 13 4 18z" horiz-adv-x="1263" />

<glyph glyph-name="network" unicode="&#xe832;" d="M295 145h53v-72h304v72h53v71h143v411h-696v-411h143z m473 437h35v-143h-35z m-72 0h36v-143h-36z m-71 0h36v-143h-36z m-72 0h36v-143h-36z m-71 0h35v-143h-35z m-72 0h36v-143h-35z m-71 0h35v-143h-35z m-107-143h-36v143h36z m36 0v143h36v-143z m696 411h-928a36 36 0 0 1-36-36v-928a36 36 0 0 1 36-36h928a36 36 0 0 1 36 36v928a36 36 0 0 1-36 36z m-62-687h-143v-72h-54v-71h-410v71h-54v72h-143v518h804z" horiz-adv-x="1000" />

<glyph glyph-name="threat-detection" unicode="&#xe833;" d="M769 494l-2 2-2-1c-11-7-24-13-35-20l-3 0 2-2a368 368 0 0 0 61-181h-140a525 525 0 0 1-24 134l0 3-2 0c-13-5-26-9-39-13l-2 0 0-3a488 488 0 0 0 22-119h-164v94l-7 0c-12 0-24 0-36 0h-3v-97h-164a501 501 0 0 0 22 119l0 2-3 0c-11 5-25 9-37 13l-3 0 0-2a539 539 0 0 1-24-133h-140a371 371 0 0 0 60 180l1 2-2 1c-12 7-24 14-36 20l-2 2-1-3a418 418 0 0 1 352-644h2a417 417 0 0 1 349 644z m21-249a368 368 0 0 0-68-191 569 569 0 0 1-96 52 528 528 0 0 1 23 140z m-96-227c-3-4-7-8-11-12a372 372 0 0 0-172-99 522 522 0 0 1 99 156 504 504 0 0 0 84-45z m-253 127v100h164a491 491 0 0 0-22-125 554 554 0 0 1-142 25z m126-68a480 480 0 0 0-126-175v197a506 506 0 0 0 126-22z m-336 167h164v-100a542 542 0 0 1-143-24 484 484 0 0 0-21 125z m-5-181a526 526 0 0 1 84-139c5-6 10-11 15-17a371 371 0 0 0-182 111 509 509 0 0 0 83 45z m169 37v-197a467 467 0 0 0-50 51 495 495 0 0 0-76 124 507 507 0 0 0 126 21z m-185 6a560 560 0 0 1-96-52 370 370 0 0 0-68 191h140a528 528 0 0 1 24-140z m545 544h0l0 3a46 46 0 0 1-12 24 508 508 0 0 1-72 68 471 471 0 0 1-191 97 329 329 0 0 1-127 3 382 382 0 0 1-108-38 578 578 0 0 1-142-105c-8-8-15-16-24-24a48 48 0 0 1 0-63 517 517 0 0 1 73-69 471 471 0 0 1 191-97 334 334 0 0 1 67-7h0a328 328 0 0 1 59 5 386 386 0 0 1 108 39 573 573 0 0 1 142 104c7 8 15 16 22 24a46 46 0 0 1 12 24l0 1v11z m-310-16a34 34 0 0 0-67 0 32 32 0 0 0 2 12h63a32 32 0 0 0 2-12z m264 11l0-1c-6-8-14-15-20-22a525 525 0 0 0-131-96 340 340 0 0 0-95-34 284 284 0 0 0-51-5h0a277 277 0 0 0-57 7 425 425 0 0 0-172 87 452 452 0 0 0-68 63c0 1 0 1 0 2h190a109 109 0 1 1 216 0h189v0z" horiz-adv-x="836" />

<glyph glyph-name="network-design" unicode="&#xe834;" d="M279 422h497a13 13 0 0 1 13 13v402a13 13 0 0 1-12 13h-497a13 13 0 0 1-13-13v-402a13 13 0 0 1 12-13z m31 390l0 0h435l0 0v-351h-435v351z m727-776h-65v117a8 8 0 0 1-8 8h-403a8 8 0 0 0-9 8v75h271a9 9 0 0 1 9 8v122a9 9 0 0 1-9 8h-590a9 9 0 0 1-8-8v-122a9 9 0 0 1 8-8h269v-74a8 8 0 0 0-8-8h-401a8 8 0 0 1-9-9v-117h-64a20 20 0 0 1-20-20v-146a20 20 0 0 1 20-20h179a20 20 0 0 1 20 20v146a20 20 0 0 1-20 20h-65v67a8 8 0 0 0 9 8h351a8 8 0 0 0 8-8v-67h-63a20 20 0 0 1-20-20v-146a20 20 0 0 1 20-20h179a20 20 0 0 1 20 20v146a20 20 0 0 1-20 20h-66v67a8 8 0 0 0 9 8h353a8 8 0 0 0 8-8v-67h-65a20 20 0 0 1-19-20v-146a20 20 0 0 1 19-20h180a20 20 0 0 1 20 20v146a20 20 0 0 1-20 20z m-374 313c0 4 6 7 13 7h109c7 0 13-3 13-7v-39c0-4-6-6-13-6h-109c-7 0-13 2-13 6z m40 153h-353v265h353z" horiz-adv-x="1057" />

<glyph glyph-name="operational-costs" unicode="&#xe835;" d="M1212 95v81h-175v53h168v244h-161v79h-358v52h168v246h-363v-245h167v-52h-351v-79h-168v-244h168v-53h-175v-78h-132v-245h291v243h-132v52h324v-54h-131v-245h290v245h-131v81h-177v53h169v244h-169v53h682v-53h-174v-244h168v-53h-175v-78h-133v-245h290v244h-131v52h324v-54h-130v-245h289v245z m-1022-57l-7-26a78 78 0 0 1-33 8c-15 0-20-7-20-13s8-12 26-19c27-10 39-23 39-43a44 44 0 0 0-40-43v-23h-22v22a92 92 0 0 0-39 9l7 26a80 80 0 0 1 38-10c13 0 22 5 22 14s-8 14-24 20c-25 8-42 19-42 41a42 42 0 0 0 39 41v22h23v-20a81 81 0 0 0 33-6z m296 27h23v-20a78 78 0 0 0 33-8l-7-26a78 78 0 0 1-33 8c-15 0-20-6-20-13s8-12 28-19c26-10 38-22 38-43a44 44 0 0 0-41-42v-24h-22v22a91 91 0 0 0-39 10l7 26a80 80 0 0 1 38-10c13 0 22 5 22 14s-8 14-25 20c-24 8-41 19-41 41a42 42 0 0 0 39 41z m406-27l-7-26a78 78 0 0 1-32 8c-15 0-20-7-20-13s8-12 27-20c27-9 39-22 39-43a44 44 0 0 0-42-42v-23h-22v22a91 91 0 0 0-38 9l6 26a80 80 0 0 1 38-10c13 0 22 5 22 14s-7 14-24 20c-24 8-41 19-41 41a42 42 0 0 0 37 43v22h23v-21a83 83 0 0 0 32-7z m318-136v-23h-22v22a93 93 0 0 0-39 9l7 26a80 80 0 0 1 37-10c13 0 22 5 22 14s-7 14-24 20c-24 8-41 19-41 41a42 42 0 0 0 39 41v22h22v-20a82 82 0 0 0 33-8l-6-26a78 78 0 0 1-33 8c-15 0-20-6-20-13s8-12 28-19c26-10 38-23 38-43a44 44 0 0 0-41-42z" horiz-adv-x="1344" />

<glyph glyph-name="operations" unicode="&#xe836;" d="M641 30h-364a14 14 0 0 1-15-15v-150a14 14 0 0 1 15-15h364a14 14 0 0 1 15 15v150a15 15 0 0 1-15 15z m-348-150v120h333z m500 294h-137v59a14 14 0 0 1-15 15h-364a14 14 0 0 1-15-15v-150a14 14 0 0 1 15-15h364a14 14 0 0 1 15 15v61h137a93 93 0 1 0 0-188h-60l24 23a15 15 0 0 1-21 22l-52-51a15 15 0 0 1 0-21l52-50a15 15 0 0 1 21 22l-26 23h59a125 125 0 0 1 127 126 124 124 0 0 1-124 124z m-500-76v120h333z m694 581l-35 4a126 126 0 0 1-17 41l21 28a20 20 0 0 1-1 23l-31 28a14 14 0 0 1-19 2l-29-21a158 158 0 0 1-41 16l-5 37a16 16 0 0 1-14 13h-45a16 16 0 0 1-15-13l-4-35a126 126 0 0 1-41-17l-29 21a14 14 0 0 1-20-1l-30-31a14 14 0 0 1-2-19l22-29a158 158 0 0 1-17-41l-35-5a16 16 0 0 1-14-15v-6h-127a14 14 0 0 1-15-15v-177h-167a14 14 0 0 1-15-15v-61h-136a124 124 0 1 1 0-248h59l-24-24a15 15 0 0 1 0-21 15 15 0 0 1 21 0l51 49a15 15 0 0 1 0 21l-51 52a15 15 0 0 1-21 0 15 15 0 0 1 0-21l23-23h-58a93 93 0 1 0 0 186h136v-60a14 14 0 0 1 15-15h364a14 14 0 0 1 15 15v150a14 14 0 0 1-15 15h-167v160h112v-6a16 16 0 0 1 14-15l35-4a166 166 0 0 1 17-41l-22-29a14 14 0 0 1 1-20l31-30a14 14 0 0 1 19-2l29 22a160 160 0 0 1 41-17l5-35a16 16 0 0 1 15-14h45a16 16 0 0 1 16 14l4 35a124 124 0 0 1 41 17l27-22a18 18 0 0 1 21 2l31 30a14 14 0 0 1 1 20l-21 29a160 160 0 0 1 17 41l35 4a16 16 0 0 1 13 15v44a14 14 0 0 1-14 14z m-361-243l-333-121v121z m167 134a71 71 0 1 0 70 72 70 70 0 0 0-70-72z" horiz-adv-x="1000" />

<glyph glyph-name="monitor" unicode="&#xe837;" d="M520 331a167 167 0 0 0-113-46h0a156 156 0 0 0-112 46 160 160 0 0 0 0 224 166 166 0 0 0 112 46 158 158 0 0 0 113-270z m430-454a91 91 0 0 0-128 0l-203 202a61 61 0 0 0-6 8 409 409 0 0 0-493 66 409 409 0 0 0 0 577 399 399 0 0 0 287 120 409 409 0 0 0 338-640l3-2 203-203a91 91 0 0 0-1-128z m-359 343a38 38 0 0 1 26 11 37 37 0 0 1 0 53l-20 21a248 248 0 0 1 39 100h31a39 39 0 0 1 42 34 38 38 0 0 1-38 38h-30a236 236 0 0 1-41 100l22 21a38 38 0 0 1-54 53l-21-21a237 237 0 0 1-99 40v31a38 38 0 1 1-78 0v-26a225 225 0 0 1-99-40l-21 21a38 38 0 0 1-53-54l21-21a248 248 0 0 1-40-100h-30a38 38 0 0 1 0-78h30a238 238 0 0 1 40-98l-26-21a38 38 0 1 1 54-53l21 21a238 238 0 0 1 99-40v-31a38 38 0 0 1 77 0v31a227 227 0 0 1 99 40l21-21a38 38 0 0 1 28-11z" horiz-adv-x="977" />

<glyph glyph-name="org-ready" unicode="&#xe838;" d="M163 649h0c-90 1-76 122-76 122 4 79 71 79 77 79s73 0 77-79c0 0 13-121-76-122h-2z m408-283h0a32 32 0 0 1-21 38l-158 45-74 116h0c0 1 0 2-2 3a120 120 0 0 1-22 18 427 427 0 0 1-74 40l-30-98-18 51c33 46-4 47-8 47s-42-1-9-47l-17-51-32 98a427 427 0 0 1-74-40c-8-7-12-11-22-18-19-19-10-125 0-164a514 514 0 0 1 42-95 135 135 0 0 0 13-45l40-392a24 24 0 0 1 24-22h68a24 24 0 0 1 24 22l31 293 1 7 9 92h0l19 188a3 3 0 0 0 5 1l37-54a41 41 0 0 1 27-18l185-36a31 31 0 0 1 36 21z m173 178a129 129 0 0 0-22-50l15-15a15 15 0 0 0 0-20l-16-16a15 15 0 0 0-20 0l-14 15a131 131 0 0 0-50-22v-22a14 14 0 0 0-13-13h-22a14 14 0 0 0-14 15v22a131 131 0 0 0-50 22l-12-13a15 15 0 0 0-20 0l-16 16a15 15 0 0 0 0 20l15 14a131 131 0 0 0-22 51h-22a14 14 0 0 0-13 13v22a14 14 0 0 0 13 14h22a131 131 0 0 0 22 50l-15 14a15 15 0 0 0 0 20l16 16a15 15 0 0 0 20 0l14-15a129 129 0 0 0 51 20v22a14 14 0 0 0 13 13h22a14 14 0 0 0 13-13v-22a119 119 0 0 0 50-22l14 15a15 15 0 0 0 20 0l16-16a15 15 0 0 0 0-20l-15-15a151 151 0 0 0 22-49h22a14 14 0 0 0 13-14v-22a14 14 0 0 0-13-13z m-79 76a72 72 0 1 1 0-101 72 72 0 0 1 0 101z" horiz-adv-x="779" />

<glyph glyph-name="platform-security" unicode="&#xe839;" d="M2 850v-278h756v278z m264-159h-132v42h129v-42z m328-11a33 33 0 0 0-32 32 32 32 0 1 0 63 0 33 33 0 0 0-31-32z m198-458v-56h-96v56a43 43 0 0 0 46 42h9a41 41 0 0 0 41-42z m-47 146a251 251 0 0 1-255-247 251 251 0 0 1 255-248 251 251 0 0 1 255 246 251 251 0 0 1-255 249z m136-393h-272v191h44v56a87 87 0 0 0 89 84h9a86 86 0 0 0 87-85v-56h45z m-436 145v8h-445v-278h631a297 297 0 0 0-186 270z m-180-151h-131v42h129v-42z m480 441h13v81h-756v-278h461a297 297 0 0 0 282 197z m-611-79v41h129v-41z" horiz-adv-x="1000" />

<glyph glyph-name="process" unicode="&#xe83a;" d="M749-4a501 501 0 0 0-690-16v-57h-59v159h157v-59h-55a440 440 0 0 1 605 15l21 21 42-42z m5 624h39v157h-60v-57a500 500 0 0 1-691-16l-21-21 42-42 21 21a440 440 0 0 0 605 16h-55v-58h120z m-206-471l17-36a27 27 0 0 0-12-35l-36-19a26 26 0 0 0-35 12l-18 37a264 264 0 0 0-102-7l-12-39a26 26 0 0 0-34-17l-40 14a26 26 0 0 0-17 33l13 39a251 251 0 0 0-78 67l-35-18a26 26 0 0 0-35 13l-19 35a26 26 0 0 0 12 36l36 18a263 263 0 0 0-6 102l-38 13a26 26 0 0 0-16 33l12 38a26 26 0 0 0 33 17l37-12a256 256 0 0 0 68 78l-18 35a26 26 0 0 0 13 35l36 19a26 26 0 0 0 35-12l18-36a266 266 0 0 0 103 7l13 37a26 26 0 0 0 33 17l39-14a26 26 0 0 0 16-33l-12-37a253 253 0 0 0 78-68l35 18a26 26 0 0 0 35-13l19-36a26 26 0 0 0-12-35l-36-18a242 242 0 0 0 7-102l38-12a26 26 0 0 0 17-34l-13-39a26 26 0 0 0-33-17l-39 13a251 251 0 0 0-67-77z m-233 292l-22 44a169 169 0 0 1-49-211 166 166 0 0 1 32-44l29 44a97 97 0 0 0-17 25 118 118 0 0 0 27 142z m245-130l-54 3a115 115 0 0 0-59-69 121 121 0 0 0-91-6l-30-45a169 169 0 0 1 145 3 172 172 0 0 1 89 114z m-217 16a57 57 0 1 1 26 77 57 57 0 0 1-26-77z m222 46a150 150 0 0 1-16 53 169 169 0 0 1-199 87l21-44a118 118 0 0 0 130-64 117 117 0 0 0 10-29z" horiz-adv-x="792" />

<glyph glyph-name="process-results" unicode="&#xe83b;" d="M734 850h-709a25 25 0 0 1-25-25v-950a25 25 0 0 1 25-26h479v220a59 59 0 0 0 59 59h197v697a25 25 0 0 1-26 25z m-345-771h-248a25 25 0 1 0 0 49h248a25 25 0 1 0 0-49z m105 149h-353a25 25 0 1 0 0 49h353a25 25 0 1 0 0-49z m76 150h-429a25 25 0 0 0 0 49h429a25 25 0 0 0 0-49z m-24 219l-49-51-51 51-46 47 51 51 47-48 112 113 51-50z m16-518h124l-134-143v133a10 10 0 0 0 10 10z" horiz-adv-x="760" />

<glyph glyph-name="provisioning" unicode="&#xe83c;" d="M1145 270l-47-47-93 92a389 389 0 0 0-91-92l91-91-47-46a9 9 0 0 1 5-14l203-20a12 12 0 0 1 13 12l-20 203a10 10 0 0 1-14 3z m-845 269a559 559 0 0 0 4 64h-129v65a9 9 0 0 1-15 7l-156-129a12 12 0 0 1 0-17l156-130c5-5 15 0 15 7v67h129a650 650 0 0 0-4 66z m917 137c-5 5-15 0-15-7v-66h-131a464 464 0 0 0 5-64 498 498 0 0 0-5-63h132v-66a9 9 0 0 1 15-8l157 130a12 12 0 0 1 0 17z m-844-362l-91-91-46 47c-5 5-14 2-14-5l-22-203a12 12 0 0 1 12-12l203 19a9 9 0 0 1 5 15l-49 49 91 91a343 343 0 0 0-89 90z m446-289h-66v130a515 515 0 0 0-64-5 559 559 0 0 0-63 5v-130h-66a9 9 0 0 1-8-15l130-156a12 12 0 0 1 17 0l130 156a11 11 0 0 1-10 15z m181 514a311 311 0 1 0-311 311 312 312 0 0 0 311-311z m-157 66l-58 59-135-135-56 57-59-59 56-56 59-59 59 59z" horiz-adv-x="1378" />

<glyph glyph-name="public-cloud" unicode="&#xe83d;" d="M1083 44a97 97 0 0 1-89-61h-315a98 98 0 0 1-53 53v105h223a225 225 0 0 1 95 430c0 7 0 14 0 21a259 259 0 0 1-497 98 129 129 0 0 1-213-98 125 125 0 0 1 20-69 193 193 0 0 1 44-382h255v-105a97 97 0 0 1-52-53h-316a97 97 0 0 1-89 61 97 97 0 0 1 0-193 97 97 0 0 1 89 61h316a96 96 0 0 1 178 0h315a96 96 0 1 1 89 133z m-987-121a24 24 0 1 0 24 24 24 24 0 0 0-24-24z m494 0a24 24 0 1 0 24 24 24 24 0 0 0-24-24z m493 0a24 24 0 1 0 24 24 23 23 0 0 0-24-24z" horiz-adv-x="1179" />

<glyph glyph-name="roadmap" unicode="&#xe83e;" d="M1090 735a19 19 0 0 0-11-17l-164-78v-51a81 81 0 0 0 64-80 83 83 0 0 0-64-79v-127a81 81 0 0 0 64-80 83 83 0 0 0-64-82v-128a81 81 0 0 0 64-80 84 84 0 0 0-83-83 83 83 0 0 0-80 63h-111a81 81 0 0 0-80-63 82 82 0 0 0-80 63h-113a81 81 0 0 0-80-63 82 82 0 0 0-80 63h-109a81 81 0 0 0-80-63 84 84 0 0 0-83 83 82 82 0 0 0 63 80v128a81 81 0 0 0-63 81 83 83 0 0 0 165 18h110a82 82 0 0 0 160 0h110a85 85 0 0 0 62 62v127a85 85 0 0 0-62 62h-113a81 81 0 0 0-80-64 82 82 0 0 0-80 64h-107a81 81 0 0 0-80-64 84 84 0 0 0-83 84 82 82 0 0 0 63 80v239a18 18 0 0 0 9 16 16 16 0 0 0 18 2l174-83a18 18 0 0 0 10-17 18 18 0 0 0-10-16l-164-79v-59a85 85 0 0 0 62-62h110a81 81 0 0 0 82 64 83 83 0 0 0 80-64h110a81 81 0 0 0 79 64 84 84 0 0 0 83-83 82 82 0 0 0-63-80v-129a81 81 0 0 0 63-80 84 84 0 0 0-83-83 82 82 0 0 0-80 64h-113a81 81 0 0 0-80-64 82 82 0 0 0-80 64h-106a86 86 0 0 0-62-62v-128a86 86 0 0 0 62-62h110a81 81 0 0 0 80 63 83 83 0 0 0 80-63h110a82 82 0 0 0 80 63 83 83 0 0 0 80-63h110a86 86 0 0 0 63 62v128a81 81 0 0 0-64 80 82 82 0 0 0 64 80v128a81 81 0 0 0-64 80 82 82 0 0 0 64 80v229a17 17 0 0 0 9 17 16 16 0 0 0 18 2l173-85a24 24 0 0 0 11-19z" horiz-adv-x="1090" />

<glyph glyph-name="security" unicode="&#xe83f;" d="M761 427a17 17 0 0 1-17 17h-88v122a284 284 0 1 1-568-4v-118h-70a17 17 0 0 1-17-17v-431h760z m-332-348h-97l14 138a63 63 0 1 0 69 0c5-42 14-137 14-138z m105 365h-324v122a163 163 0 0 0 325 0z m227-577a17 17 0 0 0-17-17h-727a17 17 0 0 0-17 17v107h761z" horiz-adv-x="761" />

<glyph glyph-name="serverless-arch" unicode="&#xe840;" d="M51 600a94 94 0 0 0 54 90 73 73 0 0 0-5 35 124 124 0 0 0 125 125 130 130 0 0 0 115-70 107 107 0 0 0 60 19 100 100 0 0 0 100-100v-15a97 97 0 0 0 51-85 100 100 0 0 0-100-100h-301a100 100 0 0 0-99 101z m399-565v15a100 100 0 0 1-100 100 108 108 0 0 1-60-20 130 130 0 0 1-115 70 124 124 0 0 1-124-125 77 77 0 0 1 5-35 94 94 0 0 1-56-90 100 100 0 0 1 100-100h300a100 100 0 0 1 100 100 97 97 0 0 1-50 85z m500 300v15a100 100 0 0 1-100 100 107 107 0 0 1-60-20 131 131 0 0 1-115 70 124 124 0 0 1-125-125 74 74 0 0 1 5-35 102 102 0 0 1-55-90 100 100 0 0 1 100-100h300a100 100 0 0 1 100 100 97 97 0 0 1-50 85z m-785 115h-15a139 139 0 0 0-80 26 173 173 0 0 1-10-51 379 379 0 0 1-9-75 480 480 0 0 1 10-85c5-15 10-35 15-50a144 144 0 0 0 90 35 184 184 0 0 0-10 51 159 159 0 0 0-5 51 175 175 0 0 0 5 50 184 184 0 0 0 9 48z m405 240a361 361 0 0 0 69-19 406 406 0 0 0 120-85 288 288 0 0 0 60-90c5 5 20 5 30 5a150 150 0 0 0 80-26 325 325 0 0 1-25 66 448 448 0 0 1-330 249 246 246 0 0 1-59 9 142 142 0 0 0 35-85 90 90 0 0 1 20-24z m105-639a247 247 0 0 0-90-35 152 152 0 0 0-51-10 176 176 0 0 0 10-55 74 74 0 0 0-9-47 217 217 0 0 1 55 10 451 451 0 0 1 240 140c15 15 26 35 40 50h-130a177 177 0 0 0-65-54z" horiz-adv-x="1000" />

<glyph glyph-name="servers" unicode="&#xe841;" d="M32 638h941c15 0 27 9 27 20v172c0 11-12 20-27 20h-941c-15 0-27-9-27-20v-172c0-11 12-20 27-20z m866 153a47 47 0 1 0-47-47 46 46 0 0 0 47 47z m-153 0a47 47 0 1 0-47-47 47 47 0 0 0 47 47z m-154 0a47 47 0 1 0-46-47 47 47 0 0 0 46 47z m-559-422h941c15 0 27 9 27 20v173c0 11-12 20-27 20h-941c-15 0-27-9-27-20v-172c0-11 12-21 27-21z m866 153a47 47 0 1 0-47-47 46 46 0 0 0 47 48z m-153 0a47 47 0 1 0-47-47 47 47 0 0 0 47 48z m-154 0a47 47 0 1 0-46-47 47 47 0 0 0 46 48z m95-539v43h-135v76h422c15 0 27 9 27 20v172c0 11-12 20-27 20h-941c-15 0-27-9-27-20v-172c0-11 12-20 29-20h419v-76h-133v-43h-320v-97h320v-36h366v36h319v97z m212 272a47 47 0 1 0-47-46 46 46 0 0 0 47 46z m-153 0a47 47 0 1 0-47-46 47 47 0 0 0 47 46z m-154 0a47 47 0 1 0-46-46 47 47 0 0 0 46 46z" horiz-adv-x="1005" />

<glyph glyph-name="catalog" unicode="&#xe842;" d="M984 96h-653a65 65 0 0 0-63 48l-166 621h-102v85h118a65 65 0 0 0 62-48l166-621h638v-84z m-629-51a94 94 0 1 1 94-94 94 94 0 0 1-94 94z m637-101a94 94 0 1 0-94 93h0a93 93 0 0 0 93-93z m-716 775l123-459a22 22 0 0 1 21-16h547a21 21 0 0 1 21 18l82 459a21 21 0 0 1-17 25h-757a21 21 0 0 1-22-21 44 44 0 0 1 2-6z" horiz-adv-x="1070" />

<glyph glyph-name="delivery" unicode="&#xe843;" d="M1865 179h-443v447h175a42 42 0 0 0 39-27l76-191a37 37 0 0 1 17-20l114-52a42 42 0 0 0 22-37v-120z m-1074-79a125 125 0 1 1 125-125 125 125 0 0 1-125 125z m807 0a125 125 0 1 1 125-125 125 125 0 0 1-126 125z m264 54h-1324c-20 0-36-32-36-72s16-73 36-73l96 0a160 160 0 0 0 314 0h494a160 160 0 0 0 314 0h106c20 0 36 32 36 73s-16 72-36 72z m-1826 548a36 36 0 1 1 0-71h502v71z m92-151a36 36 0 0 1 0-72h410v72z m92-151a36 36 0 0 1 0-71h317v71z m1176 403v-624h-858v150h101a36 36 0 1 1 0 71h-102v79h102a36 36 0 1 1 0 72h-102v80h102a36 36 0 0 1 0 71h-102v101a47 47 0 0 0 48 47h764a47 47 0 0 0 47-47z m-198-287a205 205 0 1 1-205-206 205 205 0 0 1 205 205z m-109 115l-136-132-53 52-48-50 99-99 184 183z" horiz-adv-x="1898" />

<glyph glyph-name="simplify" unicode="&#xe844;" d="M1138 310a2246 2246 0 0 1-487-273 20 20 0 0 0-29 22l79 219c-253-32-378-151-398-370a63 63 0 0 0-62-59 62 62 0 0 0-62 67q20 241 185 365h-291a73 73 0 0 0 0 146h272q-149 123-167 356a63 63 0 0 0 62 67 62 62 0 0 0 63-58c17-222 141-338 397-370l-79 218a19 19 0 0 0 30 22 2296 2296 0 0 1 486-273 42 42 0 0 0 1-79z" horiz-adv-x="1165" />

<glyph glyph-name="speed" unicode="&#xe845;" d="M207 755a500 500 0 1 1 698-112 500 500 0 0 1-698 112z m492-34l4 6a409 409 0 0 0 42-27l-4-6-33-53-4-6a380 380 0 0 1-42 27l5 5z m-167-16l10 63 0 7a423 423 0 0 0 49-7l-11-78a376 376 0 0 1-49 7z m-139-15l-14 62-2 7a436 436 0 0 0 48 11l2-7 15-62 1-7a326 326 0 0 1-48-11z m-163-9c6 5 13 10 19 15a173 173 0 0 0 21 13l45-62c-7-4-14-8-20-14a181 181 0 0 1-20-15z m2-557l-63-45c-5 7-11 14-15 20a213 213 0 0 0-14 21l63 45c4-7 9-14 14-20s10-14 15-20z m-66 121l-6-2-62-14-7-2a370 370 0 0 0-11 48l7 2 62 15 7 1a334 334 0 0 1 10-48z m-14 136l-77 12a442 442 0 0 0 7 49l70-11 8 0a342 342 0 0 1-8-50z m38 131l-6 4-54 33-6 4a424 424 0 0 0 27 42l6-4 54-33 5-4a357 357 0 0 1-26-42z m353-222a74 74 0 1 0 17 103l4-5a74 74 0 0 0-14-93z m308-185l-6 4-54 33-6 4a340 340 0 0 1 27 42l6-3 53-34 7-4a421 421 0 0 0-27-42z m-48 193l-226-3a94 94 0 0 1 14 83l213-73a4 4 0 0 0 0-7h0z m115-40l-77 12a376 376 0 0 1 8 49l77-12a373 373 0 0 0-8-49z m3 165l-7-1-60-14-7-2a334 334 0 0 1-12 49l7 1 62 15 7 2a369 369 0 0 0 11-48z m-123 111c-5 7-9 14-14 21a213 213 0 0 1-15 20l62 45c6-6 11-13 16-19s10-14 14-21z" horiz-adv-x="1000" />

<glyph glyph-name="stable" unicode="&#xe846;" d="M939-119a31 31 0 0 0-32-31h-375a31 31 0 0 0-28 19 32 32 0 0 0 6 34l188 188a31 31 0 0 0 44 0l181-183a31 31 0 0 0 16-27z m498 313a31 31 0 0 1-31 31h-1375a31 31 0 0 1 0-62h1375a31 31 0 0 1 31 31z m-874 375a281 281 0 1 0-282 281 282 282 0 0 0 282-281z m-143-36l-107 55v106a31 31 0 1 1-63 0v-125a32 32 0 0 1 17-29l125-62a29 29 0 0 1 14-4 31 31 0 0 1 14 59z m944-58c0 64-48 106-150 124l-6 0c-64 12-94 31-94 62s43 63 94 63 91-27 94-59a31 31 0 0 1 34-29 31 31 0 0 1 28 33c-5 67-72 116-156 116s-156-54-156-122c0-65 48-106 150-125l6 0c64-12 94-31 94-62s-43-62-94-62-91 26-94 59a31 31 0 0 1-62-6c5-66 72-115 156-115s156 54 156 123z m-123-156v500a31 31 0 0 1-63 0v-500a31 31 0 1 1 63 0z" horiz-adv-x="1437" />

<glyph glyph-name="standardize" unicode="&#xe847;" d="M953 505l-106 113-75 137-153 29-143 66-139-66-155-29-74-137-106-113 18-155-20-155 106-113 75-137 153-29 141-66 140 66 153 29 74 137 106 113-16 155z m-108-423l-228-166h-280l-228 166-87 268 88 268 227 166h282l228-166 84-268z m-26 516l-211 156h-263l-212-154-80-250 80-248 212-154h261l212 154 82 248z m-67-106l-325-364a39 39 0 0 0-55 4l-175 237a54 54 0 0 0 11 72 55 55 0 0 0 33 11c16 0 24-5 43-22l123-96 268 230a53 53 0 1 0 77-72z" horiz-adv-x="953" />

<glyph glyph-name="storage" unicode="&#xe848;" d="M386 525a62 62 0 1 0-62-62 62 62 0 0 0 62 62z m383 269v-888a57 57 0 0 0-56-56h-657a56 56 0 0 0-56 56v888a56 56 0 0 0 56 56h659a55 55 0 0 0 54-56z m-717-35a41 41 0 0 1 42-42 41 41 0 0 1 42 42 41 41 0 0 1-42 42 41 41 0 0 1-42-42z m625-294a292 292 0 1 1-414-266 15 15 0 0 1 17 3l138 141a14 14 0 0 0 24-14l-47-135a16 16 0 0 1 16-20 293 293 0 0 1 266 291z m28-521a42 42 0 1 1-42-42 41 41 0 0 1 43 41z m0 816a42 42 0 0 1-84 0 42 42 0 0 1 84 0z" horiz-adv-x="769" />

<glyph glyph-name="strategy" unicode="&#xe849;" d="M87 86h541a57 57 0 0 1 27-27l7-3a45 45 0 0 0 25-40v-135a31 31 0 0 0-31-31h-597a31 31 0 0 0-30 31v136a44 44 0 0 0 25 40l10 5a45 45 0 0 1 23 24z m364 374c49-31 112 0 112 0l57-38a47 47 0 0 1 65 14l25 44a47 47 0 0 1-9 62l-133 111-8 30a58 58 0 0 1-32 38l-89 42 10 75a12 12 0 0 1-13 12h-2a137 137 0 0 1-98-96c-262-86-283-355-239-526h479c-16 44-46 76-102 121-77 63-23 110-23 110z m-348-253h-56a50 50 0 0 1 0-99h606a50 50 0 0 1 5 99h-555z" horiz-adv-x="718" />

<glyph glyph-name="sys-admin" unicode="&#xe84a;" d="M661 83a292 292 0 0 0 292 292h8a28 28 0 0 1 8 25l-16 95a28 28 0 0 1-32 23l-34-7c-14-2-25 25-25 25h0a403 403 0 0 1-59 94v0s-19 23-11 34l19 27a28 28 0 0 1-7 39l-80 57a28 28 0 0 1-39-6l-20-28c-8-10-36 0-36 0h0a413 413 0 0 1-108 25v0s-30 3-32 16l-5 33a28 28 0 0 1-32 23l-96-16a28 28 0 0 1-23-33s3-20 6-33-25-25-25-25v0a403 403 0 0 1-94-59h0s-24-20-34-12l-28 20a27 27 0 0 1-39-7l-56-79a28 28 0 0 1 6-39l28-19c10-8 0-36 0-36h0a415 415 0 0 1-25-108h0s-3-30-16-33l-33-5a28 28 0 0 1-23-33l16-96a28 28 0 0 1 32-23l33 6c13 2 25-25 25-25h0a408 408 0 0 1 59-93h0s19-24 11-35l-18-27a27 27 0 0 1 7-39l79-56a27 27 0 0 1 39 6l19 28c8 11 36 0 36 0v0a415 415 0 0 1 108-25v0s30-3 33-16 5-33 5-33a28 28 0 0 1 32-23l96 17a28 28 0 0 1 23 31s-4 20-6 33 25 25 25 25v0c6 3 12 7 18 10a291 291 0 0 0-11 85z m-303 106a217 217 0 1 0 303 51 218 218 0 0 0-303-51z m731-198a3 3 0 0 0 0-5l-39-39a3 3 0 0 0-5 0 4 4 0 0 0 0 5l39 39a3 3 0 0 0 5 0z m-136 326a233 233 0 1 1 233-234 234 234 0 0 1-233 234z m38-104a65 65 0 0 0 63 16l-34-33a25 25 0 0 1 0-33l13-12a25 25 0 0 1 32 0l34 34a65 65 0 0 0-80-80l-14-14s0 2 0 3v5l-5 3a31 31 0 0 1-9 4 12 12 0 0 1-1 14 11 11 0 0 1-16 0l-5-6-15 15 21 21a64 64 0 0 0 16 63z m-184 12l2 2 0 0 1 2a11 11 0 0 0 8 2s23-13 29-18a234 234 0 0 0 16-27l73-70 5 5a10 10 0 0 0 6 0l18-19-16-16h0l-14-14-18 19a10 10 0 0 0 0 5c2 2 5 5 5 5l-72 71a234 234 0 0 0-28 16c-5 7-18 30-18 30a11 11 0 0 0 3 7z m108-271a65 65 0 0 0-63-16l33 33a25 25 0 0 1 0 33l-12 12a25 25 0 0 1-33 0l-33-34a65 65 0 0 0 80 80l20 21 15-15-4-5a11 11 0 0 1 0-15 11 11 0 0 1 12-2 34 34 0 0 1 4-9l3-5h9l-14-14a65 65 0 0 0-17-64z m180 5l-18-17a25 25 0 0 0-33 0l-31 31a74 74 0 0 1-25 46 72 72 0 0 1-45 25 23 23 0 0 0 3 29l17 18a23 23 0 0 0 30 2 74 74 0 0 1 24-45 74 74 0 0 1 46-25l32-31a23 23 0 0 0 0-33z" horiz-adv-x="1186" />

<glyph glyph-name="testing" unicode="&#xe84b;" d="M79-145l107 5a56 56 0 0 1 47 30 42 42 0 0 1 27-10h2l450-30h18a289 289 0 0 1 165 52l286 201a56 56 0 0 1 15 77 45 45 0 0 1-6 7l0 0a57 57 0 0 1-73 11c-89-55-266-161-266-161a147 147 0 0 0-72-21l-201 0h0a13 13 0 0 0-13 14 13 13 0 0 0 12 12l205 4a48 48 0 0 1 1 96l-121 9a610 610 0 0 0-149 31c-154 57-245 27-294 12a58 58 0 0 1-51 27l-107-4a63 63 0 0 1-61-66v0l12-236a63 63 0 0 1 67-59z m42 125a35 35 0 1 0-37-34 36 36 0 0 0 37 34z m730 154l166 86a54 54 0 0 0 61-7c-72-45-159-97-215-132a80 80 0 0 1-12 53z m-86 41l156 62a52 52 0 0 0 51-5l-145-73a82 82 0 0 1-41 15z m-312 92h391a65 65 0 0 1 65 65 64 64 0 0 1-9 32l-130 225v182h13a37 37 0 0 1 37 37v5a37 37 0 0 1-37 37h-269a37 37 0 0 1-37-37v-5a37 37 0 0 1 37-37h13v-182l-130-225a65 65 0 0 1 56-97z m138 504h116v-115h-114z" horiz-adv-x="1205" />

<glyph glyph-name="validation" unicode="&#xe84c;" d="M1273 242a220 220 0 0 0-98-184 248 248 0 0 1-494-23v-14h-409a274 274 0 0 0-45 540 274 274 0 0 0 266 217 275 275 0 0 0 118-28 321 321 0 0 0 234 100 326 326 0 0 0 324-325 350 350 0 0 0-12-90 224 224 0 0 0 116-193z m-160-204v-6a186 186 0 0 0-371-10v14a186 186 0 0 0 371 2z m-78 61l-7 9a22 22 0 0 1-33 0l-96-97-42 42a22 22 0 0 1-32 0l-8-8a23 23 0 0 1 0-32l57-57 9-8a23 23 0 0 1 33 0l121 122a18 18 0 0 1-2 29z" horiz-adv-x="1273" />

<glyph glyph-name="virtual-machine" unicode="&#xe84d;" d="M1077 677a247 247 0 0 1-97 19 250 250 0 0 1-182-79 236 236 0 0 1-30 2 212 212 0 1 1 0-423h309v-115a38 38 0 0 0-38-39h-462v-115h154a19 19 0 0 0 19-19v-38a19 19 0 0 0-19-19h-385a19 19 0 0 0-19 19v38a19 19 0 0 0 19 19h154v115h-461a39 39 0 0 0-39 39v730a39 39 0 0 0 39 39h1000a39 39 0 0 0 39-39v-134z m115-192a116 116 0 0 0 0-231h-423a154 154 0 0 0 0 307 157 157 0 0 0 52-8 192 192 0 0 0 349-71 112 112 0 0 0 22 3z" horiz-adv-x="1308" />
</font>
</defs>
</svg>
